<svg width="185" height="231" viewBox="0 0 185 231" fill="none" xmlns="http://www.w3.org/2000/svg">
<path d="M92.399 23.0998C93.4201 23.0998 94.3994 22.6941 95.1214 21.9721C95.8434 21.2501 96.249 20.2709 96.249 19.2498V3.84996C96.249 2.82889 95.8434 1.84963 95.1214 1.12763C94.3994 0.40562 93.4201 0 92.399 0C91.378 0 90.3987 0.40562 89.6767 1.12763C88.9547 1.84963 88.5491 2.82889 88.5491 3.84996V19.2498C88.5491 20.2709 88.9547 21.2501 89.6767 21.9721C90.3987 22.6941 91.378 23.0998 92.399 23.0998ZM44.7904 17.6405L52.4903 30.9729C52.7403 31.4124 53.0743 31.7984 53.4734 32.1088C53.8725 32.4193 54.3288 32.648 54.8163 32.7821C55.3038 32.9161 55.8129 32.9529 56.3146 32.8902C56.8163 32.8275 57.3007 32.6666 57.7402 32.4167C58.1798 32.1667 58.5657 31.8327 58.8762 31.4336C59.1866 31.0345 59.4153 30.5782 59.5494 30.0907C59.6835 29.6032 59.7202 29.0941 59.6575 28.5924C59.5948 28.0907 59.4339 27.6063 59.184 27.1668L59.1585 27.1225L51.4586 13.7901C51.2057 13.3522 50.8692 12.9685 50.468 12.6607C50.0669 12.353 49.6091 12.1272 49.1207 11.9964C48.6323 11.8656 48.123 11.8322 47.6217 11.8983C47.1205 11.9643 46.6371 12.1284 46.1993 12.3812C45.7614 12.6341 45.3777 12.9706 45.0699 13.3718C44.7622 13.7729 44.5364 14.2307 44.4056 14.7191C44.2748 15.2075 44.2414 15.7168 44.3075 16.2181C44.3735 16.7193 44.5376 17.2027 44.7904 17.6405ZM13.7463 51.4331L13.7906 51.4586L27.123 59.1585C27.5593 59.4184 28.0427 59.5895 28.5454 59.6618C29.0482 59.734 29.5602 59.7062 30.0521 59.5797C30.544 59.4532 31.006 59.2307 31.4115 58.9249C31.817 58.6191 32.158 58.2361 32.4148 57.7979C32.6717 57.3598 32.8393 56.8751 32.908 56.3719C32.9767 55.8687 32.9452 55.3569 32.8152 54.8659C32.6853 54.3749 32.4594 53.9145 32.1508 53.5112C31.8421 53.1078 31.4567 52.7696 31.0167 52.5159L30.9724 52.4904L17.64 44.7904C17.2037 44.5305 16.7203 44.3594 16.2176 44.2872C15.7148 44.2149 15.2028 44.2428 14.7109 44.3692C14.219 44.4957 13.757 44.7182 13.3515 45.024C12.946 45.3298 12.605 45.7128 12.3482 46.151C12.0913 46.5891 11.9237 47.0738 11.855 47.577C11.7863 48.0802 11.8178 48.5921 11.9478 49.083C12.0777 49.574 12.3036 50.0344 12.6122 50.4378C12.9209 50.8411 13.3063 51.1793 13.7463 51.4331ZM23.0998 92.399C23.0998 91.378 22.6941 90.3987 21.9721 89.6767C21.2501 88.9547 20.2709 88.5491 19.2498 88.5491H3.84996C2.82889 88.5491 1.84964 88.9547 1.12763 89.6767C0.40562 90.3987 0 91.378 0 92.399C0 93.4201 0.40562 94.3994 1.12763 95.1214C1.84964 95.8434 2.82889 96.249 3.84996 96.249H19.2498C20.2709 96.249 21.2501 95.8434 21.9721 95.1214C22.6941 94.3994 23.0998 93.4201 23.0998 92.399ZM27.1677 125.614L27.123 125.64L13.7906 133.34C12.9085 133.847 12.2633 134.683 11.9959 135.665C11.7284 136.647 11.8606 137.694 12.3634 138.579C12.8662 139.464 13.6988 140.113 14.6792 140.386C15.6596 140.658 16.708 140.532 17.5953 140.034L17.64 140.008L30.9724 132.308C31.8545 131.8 32.4997 130.964 32.7671 129.982C33.0346 129.001 32.9024 127.953 32.3996 127.068C31.8968 126.184 31.0642 125.534 30.0838 125.261C29.1034 124.989 28.055 125.115 27.1677 125.614ZM171.052 133.365L171.008 133.34L157.675 125.64C156.794 125.123 155.744 124.978 154.756 125.235C153.768 125.493 152.923 126.132 152.406 127.013C151.89 127.894 151.744 128.944 152.002 129.932C152.26 130.92 152.899 131.765 153.78 132.282L153.825 132.308L167.157 140.008C168.038 140.524 169.088 140.67 170.076 140.412C171.064 140.155 171.909 139.515 172.426 138.634C172.942 137.753 173.088 136.703 172.83 135.715C172.573 134.727 171.933 133.882 171.052 133.365ZM180.948 88.5491H165.548C164.527 88.5491 163.548 88.9547 162.826 89.6767C162.104 90.3987 161.698 91.378 161.698 92.399C161.698 93.4201 162.104 94.3994 162.826 95.1214C163.548 95.8434 164.527 96.249 165.548 96.249H180.948C181.969 96.249 182.948 95.8434 183.67 95.1214C184.392 94.3994 184.798 93.4201 184.798 92.399C184.798 91.378 184.392 90.3987 183.67 89.6767C182.948 88.9547 181.969 88.5491 180.948 88.5491ZM155.754 59.6744C156.43 59.6744 157.094 59.4963 157.679 59.1585L171.011 51.4586C171.451 51.2086 171.837 50.8746 172.147 50.4755C172.458 50.0764 172.686 49.6201 172.821 49.1326C172.955 48.6451 172.991 48.136 172.929 47.6343C172.866 47.1326 172.705 46.6482 172.455 46.2087C172.205 45.7691 171.871 45.3832 171.472 45.0728C171.073 44.7623 170.617 44.5336 170.129 44.3995C169.642 44.2654 169.133 44.2287 168.631 44.2914C168.129 44.3541 167.645 44.515 167.205 44.7649L167.161 44.7904L153.829 52.4904C153.095 52.9141 152.521 53.5683 152.197 54.3513C151.872 55.1343 151.816 56.0025 152.035 56.8211C152.254 57.6397 152.738 58.3631 153.41 58.879C154.083 59.3949 154.906 59.6744 155.754 59.6744ZM127.044 32.3835C127.482 32.6368 127.966 32.8013 128.467 32.8676C128.969 32.9339 129.479 32.9006 129.968 32.7697C130.456 32.6388 130.915 32.4128 131.316 32.1047C131.717 31.7965 132.054 31.4123 132.307 30.9739L132.307 30.9729L140.007 17.6405C140.524 16.7597 140.669 15.7098 140.412 14.7217C140.154 13.7337 139.514 12.8884 138.634 12.3718C137.753 11.8553 136.703 11.7098 135.715 11.9674C134.727 12.225 133.882 12.8645 133.365 13.7453L133.339 13.7901L125.639 27.1225C125.128 28.0064 124.989 29.0573 125.252 30.0438C125.516 31.0304 126.16 31.872 127.044 32.3835ZM100.099 153.998C101.12 153.998 102.099 153.593 102.821 152.871C103.543 152.149 103.949 151.17 103.949 150.148V107.799H111.649C120.154 107.799 127.049 100.904 127.049 92.399C127.049 83.894 120.154 76.9992 111.649 76.9992C103.144 76.9992 96.249 83.894 96.249 92.399V100.099H88.5491V92.399C88.5491 83.894 81.6543 76.9992 73.1492 76.9992C64.6442 76.9992 57.7494 83.894 57.7494 92.399C57.7494 100.904 64.6442 107.799 73.1492 107.799H80.8492V150.148C80.8492 151.17 81.2548 152.149 81.9768 152.871C82.6988 153.593 83.678 153.998 84.6991 153.998C85.7202 153.998 86.6994 153.593 87.4214 152.871C88.1435 152.149 88.5491 151.17 88.5491 150.148V107.799H96.249V150.148C96.249 151.17 96.6546 152.149 97.3766 152.871C98.0986 153.593 99.0779 153.998 100.099 153.998ZM103.949 92.399C103.949 88.1463 107.396 84.6991 111.649 84.6991C115.902 84.6991 119.349 88.1463 119.349 92.399C119.349 96.6518 115.902 100.099 111.649 100.099H103.949V92.399ZM80.8492 100.099H73.1492C68.8965 100.099 65.4493 96.6518 65.4493 92.399C65.4493 88.1463 68.8965 84.6991 73.1492 84.6991C77.402 84.6991 80.8492 88.1463 80.8492 92.399V100.099Z" fill="#E88B3B"/>
<path d="M95.3904 30.873C61.4092 29.2407 32.5383 55.4642 30.906 89.4454C30.4449 99.0411 32.2346 108.612 36.1321 117.392C40.0296 126.173 45.9269 133.921 53.3527 140.016C54.6928 141.065 55.7825 142.4 56.543 143.923C57.3034 145.446 57.7155 147.119 57.7493 148.82V157.849C57.7592 160.229 58.5042 162.548 59.8825 164.489C61.2608 166.429 63.2051 167.897 65.4492 168.69V173.248C65.4593 176.099 66.5297 178.844 68.4522 180.948C64.4482 185.301 64.4482 191.996 68.4522 196.348C64.172 201.04 64.506 208.314 69.1981 212.594C71.3297 214.538 74.1141 215.61 76.9991 215.598C77.6952 215.616 78.3826 215.44 78.9845 215.09C79.5863 214.74 80.079 214.23 80.4074 213.616C80.7358 213.002 80.8869 212.309 80.8438 211.614C80.8008 210.919 80.5654 210.249 80.1638 209.681C80.042 209.445 79.8976 209.222 79.7326 209.015C79.416 208.725 79.0545 208.488 78.6623 208.314C78.5519 208.258 78.4388 208.208 78.3235 208.164C77.9339 208.022 77.525 207.94 77.1108 207.921C77.0723 207.921 77.0376 207.898 76.9991 207.898C75.9781 207.898 74.9988 207.492 74.2768 206.77C73.5548 206.048 73.1492 205.069 73.1492 204.048C73.1492 203.027 73.5548 202.048 74.2768 201.326C74.9988 200.604 75.9781 200.198 76.9991 200.198H92.399C93.42 200.198 94.3993 199.792 95.1213 199.07C95.8433 198.348 96.2489 197.369 96.2489 196.348C96.2489 195.327 95.8433 194.348 95.1213 193.626C94.3993 192.904 93.42 192.498 92.399 192.498H76.9991C75.9781 192.498 74.9988 192.093 74.2768 191.371C73.5548 190.649 73.1492 189.669 73.1492 188.648C73.1492 187.627 73.5548 186.648 74.2768 185.926C74.9988 185.204 75.9781 184.798 76.9991 184.798H92.399C93.42 184.798 94.3993 184.393 95.1213 183.671C95.8433 182.949 96.2489 181.969 96.2489 180.948C96.2489 179.927 95.8433 178.948 95.1213 178.226C94.3993 177.504 93.42 177.098 92.399 177.098H76.9991C75.9781 177.098 74.9988 176.693 74.2768 175.971C73.5548 175.249 73.1492 174.269 73.1492 173.248V169.398H92.399C93.42 169.398 94.3993 168.993 95.1213 168.271C95.8433 167.549 96.2489 166.57 96.2489 165.548C96.2489 164.527 95.8433 163.548 95.1213 162.826C94.3993 162.104 93.42 161.699 92.399 161.699H69.2992C68.2781 161.699 67.2989 161.293 66.5769 160.571C65.8549 159.849 65.4492 158.87 65.4492 157.849V148.82C65.4181 145.978 64.7541 143.178 63.5054 140.624C62.2568 138.07 60.4548 135.826 58.2306 134.056C35.2328 115.155 31.9118 81.1901 50.8122 58.1924C56.1442 51.7045 62.9184 46.5524 70.5945 43.1467C78.2707 39.7411 86.6365 38.1762 95.0246 38.5768C123.47 40.2689 145.813 63.5809 146.298 92.072C146.367 100.161 144.603 108.16 141.139 115.469C137.675 122.779 132.601 129.21 126.298 134.279C124.091 136.097 122.32 138.388 121.117 140.982C119.915 143.576 119.31 146.408 119.349 149.267V157.849C119.349 158.87 118.943 159.849 118.221 160.571C117.499 161.293 116.52 161.699 115.499 161.699H103.949C102.928 161.699 101.949 162.104 101.227 162.826C100.505 163.548 100.099 164.527 100.099 165.548C100.099 166.57 100.505 167.549 101.227 168.271C101.949 168.993 102.928 169.398 103.949 169.398H111.649V173.248C111.649 174.269 111.243 175.249 110.521 175.971C109.799 176.693 108.82 177.098 107.799 177.098H103.949C102.928 177.098 101.949 177.504 101.227 178.226C100.505 178.948 100.099 179.927 100.099 180.948C100.099 181.969 100.505 182.949 101.227 183.671C101.949 184.393 102.928 184.798 103.949 184.798H107.799C108.82 184.798 109.799 185.204 110.521 185.926C111.243 186.648 111.649 187.627 111.649 188.648C111.649 189.669 111.243 190.649 110.521 191.371C109.799 192.093 108.82 192.498 107.799 192.498H103.949C102.928 192.498 101.949 192.904 101.227 193.626C100.505 194.348 100.099 195.327 100.099 196.348C100.099 197.369 100.505 198.348 101.227 199.07C101.949 199.792 102.928 200.198 103.949 200.198H107.799C108.82 200.198 109.799 200.604 110.521 201.326C111.243 202.048 111.649 203.027 111.649 204.048C111.649 205.069 111.243 206.048 110.521 206.77C109.799 207.492 108.82 207.898 107.799 207.898H88.549C87.5279 207.898 86.5487 208.304 85.8267 209.026C85.1047 209.748 84.699 210.727 84.699 211.748C84.699 212.769 85.1047 213.748 85.8267 214.47C86.5487 215.192 87.5279 215.598 88.549 215.598H103.291C101.165 221.612 94.566 224.764 88.5519 222.639C86.7107 221.988 85.0646 220.881 83.7674 219.421C83.0833 218.677 82.1343 218.232 81.1251 218.182C80.1159 218.132 79.1273 218.48 78.3726 219.152C77.6179 219.824 77.1575 220.765 77.0907 221.773C77.0239 222.782 77.356 223.776 78.0155 224.541C85.0566 232.476 97.1965 233.2 105.131 226.159C108.408 223.251 110.592 219.31 111.322 214.99C117.351 213.105 120.711 206.69 118.827 200.66C118.326 199.058 117.479 197.586 116.346 196.348C120.35 191.996 120.35 185.301 116.346 180.948C118.268 178.844 119.339 176.099 119.349 173.248V168.69C121.593 167.897 123.537 166.429 124.915 164.489C126.294 162.548 127.039 160.229 127.049 157.849V149.267C127.023 147.559 127.376 145.866 128.083 144.311C128.789 142.755 129.831 141.375 131.133 140.27C138.341 134.475 144.143 127.123 148.103 118.766C152.063 110.408 154.079 101.262 153.998 92.0142C153.442 59.4494 127.902 32.8062 95.3904 30.873Z" fill="#E88B3B"/>
</svg>
