<svg width="56" height="56" viewBox="0 0 56 56" fill="none" xmlns="http://www.w3.org/2000/svg">
<path d="M16.3333 42V39.6667C16.3333 33.2233 21.5566 28 27.9999 28V28C34.4432 28 39.6666 33.2233 39.6666 39.6667V42" stroke="#EB622B" stroke-width="3.5" stroke-linecap="round" stroke-linejoin="round"/>
<path d="M2.33325 42.0001V39.6667C2.33325 35.8008 5.46726 32.6667 9.33325 32.6667V32.6667" stroke="#EB622B" stroke-width="3.5" stroke-linecap="round" stroke-linejoin="round"/>
<path d="M53.6667 42.0001V39.6667C53.6667 35.8008 50.5327 32.6667 46.6667 32.6667V32.6667" stroke="#EB622B" stroke-width="3.5" stroke-linecap="round" stroke-linejoin="round"/>
<path d="M28 28C31.866 28 35 24.866 35 21C35 17.134 31.866 14 28 14C24.134 14 21 17.134 21 21C21 24.866 24.134 28 28 28Z" stroke="#EB622B" stroke-width="3.5" stroke-linecap="round" stroke-linejoin="round"/>
<path d="M9.33341 32.6666C11.9107 32.6666 14.0001 30.5772 14.0001 27.9999C14.0001 25.4226 11.9107 23.3333 9.33341 23.3333C6.75609 23.3333 4.66675 25.4226 4.66675 27.9999C4.66675 30.5772 6.75609 32.6666 9.33341 32.6666Z" stroke="#EB622B" stroke-width="3.5" stroke-linecap="round" stroke-linejoin="round"/>
<path d="M46.6667 32.6666C49.244 32.6666 51.3333 30.5772 51.3333 27.9999C51.3333 25.4226 49.244 23.3333 46.6667 23.3333C44.0893 23.3333 42 25.4226 42 27.9999C42 30.5772 44.0893 32.6666 46.6667 32.6666Z" stroke="#EB622B" stroke-width="3.5" stroke-linecap="round" stroke-linejoin="round"/>
</svg>
