<svg width="208" height="208" viewBox="0 0 208 208" fill="none" xmlns="http://www.w3.org/2000/svg">
<circle cx="104" cy="104" r="102.5" stroke="#223F61" stroke-width="3"/>
<circle cx="104" cy="104" r="95" fill="#223F61"/>
<path d="M158.822 67.2774L156.847 67.9035L146.328 68.8404L143.357 73.5841L141.201 72.8993L132.83 65.353L131.616 61.4287L129.989 57.2438L124.728 52.5253L118.521 51.311L118.378 54.1514L124.459 60.0841L127.434 63.5883L124.089 65.3362L121.366 64.5337L117.286 62.832L117.424 59.5421L112.071 57.3404L110.293 65.0757L104.897 66.2984L105.431 70.6135L112.461 71.9665L113.676 65.0715L119.479 65.9287L122.177 67.5085H126.506L129.468 73.4413L137.323 81.4077L136.747 84.5043L130.414 83.6976L119.471 89.2228L111.592 98.6724L110.566 102.857H107.738L102.468 100.429L97.3499 102.857L98.6232 108.256L100.85 105.689L104.767 105.567L104.494 110.416L107.738 111.366L110.978 115.004L116.269 113.517L122.312 114.471L129.33 116.357L132.834 116.769L138.777 123.513L150.245 130.256L142.828 144.424L134.999 148.063L132.028 156.16L120.698 163.723L119.492 168.084C148.455 161.109 170 135.097 170 103.996C170.012 90.9169 166.12 78.1319 158.822 67.2774Z" fill="#DFDACA"/>
<path d="M111.587 138.492L106.78 129.58L111.192 120.387L106.78 119.067L101.825 114.092L90.8487 111.63L87.2053 104.008V108.534H85.6L76.1405 95.7101V85.1765L69.2066 73.9034L58.1965 75.8656H50.7793L47.0477 73.4202L51.8089 69.6471L47.0603 70.7437C41.1281 80.8245 37.9999 92.308 38 104.004C38 140.445 67.5467 170 103.998 170C106.805 170 109.558 169.752 112.281 169.424L111.592 161.429C111.592 161.429 114.621 149.555 114.621 149.151C114.617 148.744 111.587 138.492 111.587 138.492ZM62.5249 59.2815L74.2495 57.6471L79.6537 54.6849L85.7345 56.437L95.4503 55.8992L98.7786 50.6681L103.632 51.4664L115.42 50.3614L118.668 46.7816L123.249 43.7227L129.729 44.6975L132.091 44.3404C123.309 40.1771 113.713 38.0117 103.994 38C94.2632 37.9891 84.6513 40.1356 75.85 44.2849C67.0488 48.4341 59.2772 54.4829 53.0948 61.9958H53.1285L62.5249 59.2815ZM106.784 44.5631L113.525 40.853L117.853 43.353L111.587 48.1219L105.603 48.7227L102.909 46.9748L106.784 44.5631ZM86.8187 45.1051L89.794 46.3446L93.6895 45.1051L95.8117 48.7815L86.8187 51.1429L82.4945 48.6135C82.4903 48.6135 86.722 45.8908 86.8187 45.1051Z" fill="#DFDACA"/>
</svg>
