<svg width="208" height="208" viewBox="0 0 208 208" fill="none" xmlns="http://www.w3.org/2000/svg">
<circle cx="104" cy="104" r="102.5" stroke="#223F61" stroke-width="3"/>
<circle cx="104" cy="104" r="95" fill="#223F61"/>
<path fill-rule="evenodd" clip-rule="evenodd" d="M112.339 40.8526L120.722 47.2047C123.015 48.9419 125.429 49.831 128.288 49.9921L138.744 50.5809C145.005 50.9332 150.09 55.2519 151.52 61.4319L153.909 71.7525C154.562 74.575 155.846 76.8263 157.935 78.8102L165.57 86.0644C170.143 90.4078 171.295 97.0246 168.466 102.689L163.742 112.149C162.45 114.736 162.004 117.296 162.344 120.175L163.587 130.7C164.331 137.002 161.012 142.821 155.248 145.319L145.622 149.492C142.989 150.634 141.021 152.305 139.454 154.731L133.722 163.602C130.29 168.914 124.052 171.212 118.05 169.376L108.026 166.309C105.285 165.471 102.716 165.471 99.9745 166.309L89.9502 169.376C83.948 171.212 77.7105 168.914 74.2785 163.602L68.5466 154.731C66.9789 152.305 65.0115 150.634 62.3789 149.492L52.7517 145.319C46.9877 142.82 43.6687 137.002 44.4128 130.699L45.6558 120.174C45.9957 117.296 45.5497 114.736 44.2577 112.148L39.5335 102.689C36.7049 97.0243 37.8574 90.4075 42.4295 86.0638L50.0655 78.8096C52.1538 76.8258 53.4378 74.5744 54.0909 71.7519L56.4796 61.4314C57.9096 55.2516 62.9946 50.933 69.2556 50.5803L79.7114 49.9916C82.5711 49.8307 84.9845 48.9413 87.2775 47.2041L95.6611 40.8521C100.681 37.0492 107.319 37.0492 112.339 40.8526ZM98.6518 107.635L89.5537 98.4261C87.1955 96.0392 83.3705 96.0392 81.0127 98.4261C78.6546 100.813 78.6546 104.684 81.0127 107.071L94.3945 120.616C96.7526 123.003 100.578 123.003 102.935 120.616C111.001 112.452 118.976 104.196 127.004 95.9938C129.345 93.6022 129.338 89.7431 126.978 87.3679C124.618 84.9921 120.795 84.9988 118.451 87.3946L98.6518 107.635ZM104 58.4761C91.5804 58.4761 80.3365 63.5717 72.1975 71.8098C64.0586 80.0483 59.0245 91.4291 59.0245 104C59.0245 116.571 64.0586 127.952 72.1975 136.19C80.3365 144.428 91.5804 149.524 104 149.524C116.419 149.524 127.663 144.428 135.802 136.19C143.941 127.952 148.975 116.571 148.975 104C148.975 91.4291 143.941 80.048 135.802 71.8098C127.663 63.5717 116.419 58.4761 104 58.4761ZM132.691 74.9589C125.348 67.5268 115.204 62.9298 104 62.9298C92.7951 62.9298 82.6511 67.5268 75.3086 74.9589C67.9661 82.3909 63.4245 92.6586 63.4245 104C63.4245 115.341 67.9661 125.609 75.3086 133.041C82.6511 140.473 92.7951 145.07 104 145.07C115.204 145.07 125.348 140.473 132.691 133.041C140.033 125.609 144.575 115.341 144.575 104C144.575 92.6586 140.033 82.3909 132.691 74.9589Z" fill="#DFDACA"/>
</svg>
