<svg width="208" height="208" viewBox="0 0 208 208" fill="none" xmlns="http://www.w3.org/2000/svg">
<circle cx="104" cy="104" r="102.5" stroke="#223F61" stroke-width="3"/>
<circle cx="104" cy="104" r="95" fill="#223F61"/>
<g clip-path="url(#clip0_287_3)">
<path d="M152.4 92.9996C147.172 92.9996 142.666 96.6775 141.62 101.8H114.78C114.283 99.3801 112.98 97.2008 111.084 95.6179L118.52 82.0003H126.22C127.349 87.5329 132.485 91.3117 138.104 90.7437C143.722 90.1765 147.997 85.4465 147.997 79.7996C147.997 74.153 143.722 69.4226 138.104 68.856C132.485 68.2877 127.349 72.0675 126.22 77.6005H119.4V67.5236C119.037 67.3705 118.654 67.2575 118.285 67.1137C118.189 67.0476 118.087 66.9897 117.98 66.9404C117.487 66.753 116.979 66.6151 116.48 66.448C116.1 66.3212 115.725 66.1902 115.34 66.0742C114.508 65.8246 113.664 65.616 112.817 65.4227C112.425 65.3332 112.038 65.2314 111.643 65.1538C110.75 64.9795 109.846 64.8537 108.939 64.741C108.576 64.6956 108.22 64.6291 107.853 64.5941C106.579 64.4721 105.295 64.3994 104 64.3994C94.8768 64.3933 86.034 67.5526 78.98 73.3383C78.9318 73.3777 78.8785 73.411 78.83 73.4512C78.103 74.0504 77.4223 74.7008 76.7404 75.3505C76.5038 75.5751 76.2459 75.7785 76.0152 76.0092C75.5318 76.4937 75.0927 77.0204 74.6333 77.5288C74.2427 77.9619 73.8289 78.3729 73.4562 78.823C73.2014 79.1311 72.9818 79.4696 72.7361 79.7857C72.2034 80.4725 71.6615 81.1521 71.1743 81.8745C71.1289 81.94 71.0936 82.0134 71.0484 82.0799C69.6696 84.1377 68.4874 86.3206 67.5174 88.5998C67.4904 88.6632 67.4731 88.7305 67.446 88.7931C65.4353 93.6106 64.3999 98.7791 64.3999 103.999C64.3999 109.22 65.4353 114.388 67.446 119.206C67.4721 119.269 67.4904 119.337 67.5174 119.399C68.4874 121.678 69.6693 123.862 71.0474 125.92C71.0915 125.985 71.1278 126.059 71.1732 126.125C71.6605 126.847 72.2024 127.527 72.7351 128.214C72.981 128.53 73.2004 128.868 73.4551 129.176C73.8279 129.627 74.2417 130.038 74.6326 130.471C75.0917 130.979 75.5297 131.506 76.0144 131.991C76.2449 132.221 76.5027 132.424 76.7394 132.649C77.4211 133.299 78.103 133.949 78.829 134.549C78.8774 134.589 78.9308 134.622 78.979 134.662C86.0334 140.447 94.8765 143.606 104 143.6C105.295 143.6 106.579 143.528 107.853 143.406C108.22 143.371 108.576 143.304 108.939 143.259C109.846 143.146 110.75 143.02 111.643 142.846C112.039 142.768 112.425 142.667 112.817 142.577C113.664 142.384 114.508 142.175 115.34 141.925C115.723 141.81 116.1 141.679 116.48 141.552C116.978 141.385 117.487 141.247 117.98 141.059C118.086 141.01 118.189 140.952 118.285 140.886C118.654 140.742 119.037 140.63 119.4 140.475V130.399H126.22C127.349 135.932 132.485 139.712 138.104 139.144C143.722 138.577 147.997 133.847 147.997 128.2C147.997 122.553 143.722 117.823 138.104 117.256C132.485 116.688 127.349 120.467 126.22 126H118.52L111.084 112.382C112.98 110.799 114.283 108.62 114.78 106.2H141.62C142.778 111.871 148.132 115.675 153.87 114.902C159.606 114.127 163.76 109.039 163.373 103.264C162.986 97.4881 158.189 93.0017 152.4 92.9996ZM137 73.2004C140.645 73.2004 143.6 76.1552 143.6 79.7999C143.6 83.4453 140.645 86.4001 137 86.4001C133.355 86.4001 130.399 83.4456 130.399 79.7999C130.411 76.1593 133.359 73.2104 137 73.2004ZM137 121.6C140.645 121.6 143.6 124.555 143.6 128.2C143.6 131.845 140.645 134.8 137 134.8C133.355 134.8 130.399 131.845 130.399 128.2C130.411 124.56 133.359 121.611 137 121.6ZM87.5443 83.8919C84.5536 85.841 82.0843 88.4914 80.3513 91.6123C78.6183 94.7333 77.674 98.2304 77.6005 101.8C77.6036 102.09 77.5491 102.379 77.4399 102.649C77.3308 102.918 77.1692 103.164 76.9646 103.371C76.76 103.577 76.5164 103.742 76.2479 103.854C75.9794 103.966 75.6914 104.023 75.4004 104.023C75.1095 104.023 74.8215 103.966 74.553 103.854C74.2845 103.742 74.0409 103.577 73.8363 103.371C73.6317 103.164 73.4701 102.918 73.361 102.649C73.2518 102.379 73.1973 102.09 73.2004 101.8C73.2826 97.4711 74.427 93.2293 76.533 89.4469C78.6391 85.6646 81.6423 82.4577 85.2784 80.1082C85.7801 79.8077 86.3807 79.7189 86.948 79.8612C87.5152 80.0035 88.0027 80.3653 88.3032 80.8671C88.6037 81.3688 88.6925 81.9694 88.5502 82.5366C88.4079 83.1039 88.0461 83.5914 87.5443 83.8919ZM107.168 109.786C106.2 110.327 105.109 110.607 104 110.6C100.355 110.6 97.3995 107.645 97.3995 104C97.3995 100.356 100.355 97.3997 104 97.3997C105.109 97.3927 106.201 97.6734 107.168 98.2144C108.207 98.782 109.074 99.6187 109.678 100.637C110.281 101.655 110.6 102.816 110.6 104C110.6 105.184 110.281 106.345 109.678 107.363C109.074 108.381 108.207 109.218 107.168 109.786H107.168ZM152.4 110.6C148.755 110.6 145.8 107.645 145.8 104C145.8 100.356 148.754 97.3997 152.4 97.3997C156.045 97.3997 159 100.356 159 104C158.99 107.641 156.041 110.59 152.4 110.601V110.6Z" fill="#DFDACA"/>
<path d="M148 143.601C142.773 143.599 138.266 147.278 137.22 152.4V152.401L126.918 152.406L124.079 149.567C124.065 149.552 124.057 149.533 124.042 149.518L124.02 149.496L119.642 145.14C103.152 151.408 84.513 147.223 72.286 134.507C60.0592 121.791 56.6068 103.003 63.5165 86.7709C70.4251 70.5398 86.3589 60.0028 104 59.9997C109.347 59.9915 114.649 60.9686 119.642 62.882L124.042 58.4819C124.057 58.467 124.065 58.4476 124.079 58.4327L126.902 55.5998H137.22C138.349 61.1325 143.485 64.912 149.103 64.3443C154.722 63.7771 158.998 59.047 158.998 53.4002C158.998 47.7525 154.722 43.0232 149.103 42.4553C143.485 41.8883 138.35 45.6668 137.22 51.1997H126.902C125.741 51.2028 124.629 51.6639 123.806 52.4829L121.939 54.35L121.93 54.3458C120.38 53.7801 118.801 53.2954 117.2 52.8938V42.3998C117.193 39.9728 115.227 38.007 112.8 38H95.2001C92.773 38.007 90.8072 39.9728 90.8003 42.3998V52.8938C86.0144 54.1084 81.4282 56.0053 77.1826 58.5263L69.8117 51.1343C68.9867 50.2935 67.8601 49.8181 66.6816 49.8143C65.5032 49.8104 64.3734 50.2773 63.5415 51.1121L51.1343 63.5209C50.718 63.9292 50.387 64.4161 50.1604 64.9534C49.9338 65.4907 49.8161 66.0676 49.8143 66.6507C49.8122 67.2339 49.9259 67.8118 50.1486 68.3508C50.3714 68.8898 50.6989 69.3793 51.1121 69.7909L58.5263 77.1826C56.0053 81.4281 54.1084 86.0142 52.8938 90.8H42.3998C39.9728 90.8075 38.007 92.7733 38 95.2003V112.8C38.007 115.227 39.9728 117.193 42.3998 117.2H52.8938C54.1084 121.986 56.0053 126.572 58.5263 130.818L51.1343 138.189C50.2935 139.014 49.8181 140.14 49.8143 141.319C49.8104 142.497 50.2773 143.627 51.1121 144.459L63.5206 156.866C63.9289 157.282 64.4159 157.613 64.9532 157.84C65.4904 158.066 66.0673 158.184 66.6504 158.186C67.2337 158.188 67.8115 158.074 68.3505 157.852C68.8895 157.629 69.379 157.301 69.7906 156.888L77.1823 149.474C81.4279 151.995 86.0141 153.892 90.8 155.106V165.6C90.8072 168.027 92.773 169.993 95.2001 170H112.8C115.227 169.993 117.193 168.027 117.2 165.6V155.106C118.801 154.705 120.38 154.22 121.93 153.654L121.94 153.65L123.804 155.515C124.627 156.335 125.74 156.797 126.902 156.8H137.22C138.378 162.471 143.732 166.276 149.47 165.501C155.206 164.727 159.36 159.639 158.973 153.864C158.586 148.088 153.788 143.602 148 143.601ZM148 46.7997C151.645 46.7997 154.6 49.7547 154.6 53.4002C154.6 57.0449 151.645 59.9997 148 59.9997C144.355 59.9997 141.4 57.0451 141.4 53.4002C141.411 49.7599 144.36 46.8107 148 46.7997ZM148 161.2C144.355 161.2 141.4 158.246 141.4 154.6C141.4 150.955 144.355 148 148 148C151.645 148 154.6 150.955 154.6 154.6C154.59 158.24 151.641 161.189 148 161.2Z" fill="#DFDACA"/>
</g>
<defs>
<clipPath id="clip0_287_3">
<rect width="132" height="132" fill="white" transform="translate(38 38)"/>
</clipPath>
</defs>
</svg>
