<svg width="208" height="208" viewBox="0 0 208 208" fill="none" xmlns="http://www.w3.org/2000/svg">
<circle cx="104" cy="104" r="102.5" stroke="#223F61" stroke-width="3"/>
<circle cx="104" cy="104" r="95" fill="#223F61"/>
<path d="M109.971 63.2964C88.5372 63.2964 71.0991 81.5562 71.0991 104.001C71.0991 126.445 88.5372 144.705 109.971 144.705C131.405 144.705 148.843 126.445 148.843 104.001C148.843 81.5562 131.405 63.2964 109.971 63.2964ZM128.301 108.756H105.43V75.3778H114.512V99.2454H128.301V108.756Z" fill="#DFDACA"/>
<path d="M110.144 38.0002C96.3159 37.9613 83.5229 42.5889 73.1143 50.4592H38.7446C33.3259 50.4592 28.9336 55.0589 28.9336 60.7327C28.9336 66.4068 33.3262 71.0062 38.7446 71.0062H55.3723C52.1588 76.8235 49.8183 83.1235 48.4327 89.6854H27.811C22.3927 89.6857 18 94.2852 18 99.9593C18 105.633 22.3927 110.233 27.811 110.233H47.2236C47.7951 116.65 49.2669 122.944 51.5914 128.912H44.5837C39.1651 128.912 34.7727 133.512 34.7727 139.185C34.7727 144.86 39.1654 149.459 44.5837 149.459H64.2778C75.7611 162.111 91.9859 170 109.971 170C144.781 170 173 140.451 173 104C173 67.5344 144.969 38.0985 110.144 38.0002ZM109.971 154.214C83.5293 154.214 62.0173 131.688 62.0173 104C62.0173 76.3119 83.5293 53.7858 109.971 53.7858C136.413 53.7858 157.925 76.3119 157.925 104C157.925 131.688 136.413 154.214 109.971 154.214Z" fill="#DFDACA"/>
</svg>
