<svg width="24" height="25" viewBox="0 0 24 25" fill="none" xmlns="http://www.w3.org/2000/svg">
<path d="M12 16.1748C14.2091 16.1748 16 14.3839 16 12.1748C16 9.96567 14.2091 8.1748 12 8.1748C9.79086 8.1748 8 9.96567 8 12.1748C8 14.3839 9.79086 16.1748 12 16.1748Z" stroke="white" stroke-width="1.5" stroke-linecap="round" stroke-linejoin="round"/>
<path d="M3 16.1748V8.1748C3 5.41338 5.23858 3.1748 8 3.1748H16C18.7614 3.1748 21 5.41338 21 8.1748V16.1748C21 18.9362 18.7614 21.1748 16 21.1748H8C5.23858 21.1748 3 18.9362 3 16.1748Z" stroke="white" stroke-width="1.5"/>
<path d="M17.5 6.6848L17.51 6.67369" stroke="white" stroke-width="1.5" stroke-linecap="round" stroke-linejoin="round"/>
</svg>
