<svg width="112" height="32" viewBox="0 0 112 32" fill="none" xmlns="http://www.w3.org/2000/svg">
<path d="M4 28H28V16C28 12.8174 26.7357 9.76516 24.4853 7.51472C22.2348 5.26428 19.1826 4 16 4C12.8174 4 9.76515 5.26428 7.51472 7.51472C5.26428 9.76516 4 12.8174 4 16V28Z" stroke="#EB622B" stroke-width="2" stroke-linecap="round" stroke-linejoin="round"/>
<path d="M4 22.6667L28 22.6667" stroke="#EB622B" stroke-width="2" stroke-linecap="round" stroke-linejoin="round"/>
<path d="M12 22.6667V17.3333H28" stroke="#EB622B" stroke-width="2" stroke-linecap="round" stroke-linejoin="round"/>
<path d="M17.3333 17.3333V12H26.6666" stroke="#EB622B" stroke-width="2" stroke-linecap="round" stroke-linejoin="round"/>
<path d="M45.232 25.184H40V8H45.184C50.368 8 53.824 11.456 53.824 16.592C53.824 21.728 50.392 25.184 45.232 25.184ZM45.112 9.584H41.728V23.6H45.16C49.36 23.6 52.048 20.864 52.048 16.592C52.048 12.296 49.36 9.584 45.112 9.584Z" fill="white"/>
<path d="M55.7693 19.376C55.7693 15.824 58.2653 13.256 61.6733 13.256C65.0813 13.256 67.5773 15.824 67.5773 19.376C67.5773 22.904 65.0813 25.472 61.6733 25.472C58.2653 25.472 55.7693 22.904 55.7693 19.376ZM57.4493 19.352C57.4493 22.088 59.1773 23.984 61.6733 23.984C64.1453 23.984 65.8973 22.088 65.8973 19.352C65.8973 16.664 64.1453 14.744 61.6733 14.744C59.1773 14.744 57.4493 16.664 57.4493 19.352Z" fill="white"/>
<path d="M71.8819 25.184H70.2259V13.568H71.6659L71.8579 15.224C72.4339 14 73.7299 13.256 75.3619 13.256C77.1859 13.256 78.5539 14.216 79.1059 15.728C79.6339 14.216 81.0499 13.256 82.9219 13.256C85.4419 13.256 87.0979 14.888 87.0979 17.576V25.184H85.4899V17.912C85.4899 15.92 84.3859 14.744 82.6099 14.744C80.6659 14.744 79.5139 16.208 79.5139 18.008V25.184H77.8819V17.888C77.8819 15.92 76.7539 14.768 75.0019 14.768C73.0579 14.768 71.8819 16.208 71.8819 17.984V25.184Z" fill="white"/>
<path d="M98.5891 13.568H100.245V25.184H98.8051L98.5891 23.216C97.9411 24.56 96.3331 25.472 94.5091 25.472C91.7731 25.472 90.2851 23.6 90.2851 20.768V13.544H91.9651V20.24C91.9651 23 93.1891 23.984 95.0371 23.984C97.2691 23.984 98.5891 22.496 98.5891 19.736V13.568Z" fill="white"/>
<path d="M102.476 21.92H104.06C104.06 23.264 105.068 24.104 106.7 24.104C108.5 24.104 109.556 23.336 109.556 22.088C109.556 21.128 109.076 20.576 107.708 20.24L105.716 19.736C103.7 19.232 102.716 18.176 102.716 16.592C102.716 14.552 104.42 13.256 106.916 13.256C109.364 13.256 110.948 14.6 111.02 16.76H109.412C109.364 15.416 108.428 14.624 106.868 14.624C105.236 14.624 104.324 15.32 104.324 16.568C104.324 17.456 104.948 18.08 106.22 18.392L108.212 18.896C110.228 19.4 111.14 20.336 111.14 22.016C111.14 24.104 109.364 25.472 106.724 25.472C104.108 25.472 102.476 24.08 102.476 21.92Z" fill="white"/>
</svg>
