<svg xmlns="http://www.w3.org/2000/svg" xmlns:xlink="http://www.w3.org/1999/xlink" width="1724" zoomAndPan="magnify" viewBox="0 0 1293 285.749983" height="381" preserveAspectRatio="xMidYMid meet" version="1.0"><defs><g/></defs><g fill="#f3f2ee" fill-opacity="1"><g transform="translate(218.428629, 197.269082)"><g><path d="M 35.203125 1.15625 C 23.859375 1.15625 15.664062 -1.648438 10.625 -7.265625 C 5.582031 -12.890625 3.0625 -21.957031 3.0625 -34.46875 L 3.0625 -46.703125 L 27.640625 -46.703125 L 27.640625 -31.125 C 27.640625 -24.914062 29.628906 -21.8125 33.609375 -21.8125 C 35.835938 -21.8125 37.382812 -22.46875 38.25 -23.78125 C 39.125 -25.09375 39.5625 -27.300781 39.5625 -30.40625 C 39.5625 -34.476562 39.078125 -37.847656 38.109375 -40.515625 C 37.140625 -43.179688 35.90625 -45.410156 34.40625 -47.203125 C 32.90625 -48.992188 30.210938 -51.78125 26.328125 -55.5625 L 15.5625 -66.328125 C 7.226562 -74.472656 3.0625 -83.492188 3.0625 -93.390625 C 3.0625 -104.054688 5.507812 -112.175781 10.40625 -117.75 C 15.300781 -123.332031 22.453125 -126.125 31.859375 -126.125 C 43.109375 -126.125 51.203125 -123.140625 56.140625 -117.171875 C 61.085938 -111.210938 63.5625 -101.878906 63.5625 -89.171875 L 38.109375 -89.171875 L 37.96875 -97.75 C 37.96875 -99.40625 37.503906 -100.71875 36.578125 -101.6875 C 35.660156 -102.65625 34.378906 -103.140625 32.734375 -103.140625 C 30.796875 -103.140625 29.335938 -102.601562 28.359375 -101.53125 C 27.390625 -100.46875 26.90625 -99.015625 26.90625 -97.171875 C 26.90625 -93.097656 29.234375 -88.878906 33.890625 -84.515625 L 48.4375 -70.546875 C 51.832031 -67.253906 54.644531 -64.128906 56.875 -61.171875 C 59.101562 -58.210938 60.894531 -54.71875 62.25 -50.6875 C 63.613281 -46.664062 64.296875 -41.890625 64.296875 -36.359375 C 64.296875 -24.046875 62.039062 -14.710938 57.53125 -8.359375 C 53.019531 -2.015625 45.578125 1.15625 35.203125 1.15625 Z M 35.203125 1.15625 "/></g></g></g><g fill="#f3f2ee" fill-opacity="1"><g transform="translate(285.483295, 197.269082)"><g><path d="M 16.296875 0 L 16.296875 -100.953125 L 1.453125 -100.953125 L 1.453125 -124.953125 L 56.15625 -124.953125 L 56.15625 -100.953125 L 41.3125 -100.953125 L 41.3125 0 Z M 16.296875 0 "/></g></g></g><g fill="#f3f2ee" fill-opacity="1"><g transform="translate(343.0834, 197.269082)"><g><path d="M 20.65625 0 L 20.65625 -41.171875 L 0.734375 -124.953125 L 25.453125 -124.953125 L 32.4375 -82.625 L 39.421875 -124.953125 L 64.15625 -124.953125 L 44.21875 -41.171875 L 44.21875 0 Z M 20.65625 0 "/></g></g></g><g fill="#f3f2ee" fill-opacity="1"><g transform="translate(407.956248, 197.269082)"><g><path d="M 5.53125 0 L 5.53125 -124.953125 L 30.546875 -124.953125 L 30.546875 -21.234375 L 56.296875 -21.234375 L 56.296875 0 Z M 5.53125 0 "/></g></g></g><g fill="#f3f2ee" fill-opacity="1"><g transform="translate(465.701807, 197.269082)"><g><path d="M 5.53125 0 L 5.53125 -124.953125 L 55.5625 -124.953125 L 55.5625 -100.8125 L 30.984375 -100.8125 L 30.984375 -76.515625 L 54.546875 -76.515625 L 54.546875 -52.953125 L 30.984375 -52.953125 L 30.984375 -24.296875 L 57.171875 -24.296875 L 57.171875 0 Z M 5.53125 0 "/></g></g></g><g fill="#f3f2ee" fill-opacity="1"><g transform="translate(525.624675, 197.269082)"><g/></g></g><g fill="#f3f2ee" fill-opacity="1"><g transform="translate(559.661105, 197.269082)"><g/></g></g><g fill="#f3f2ee" fill-opacity="1"><g transform="translate(593.697536, 197.269082)"><g/></g></g><g fill="#f3f2ee" fill-opacity="1"><g transform="translate(627.733966, 197.269082)"><g/></g></g><g fill="#f3f2ee" fill-opacity="1"><g transform="translate(661.770397, 197.269082)"><g/></g></g><g fill="#f3f2ee" fill-opacity="1"><g transform="translate(695.796089, 197.269082)"><g><path d="M 5.53125 0 L 5.53125 -124.953125 L 30.40625 -124.953125 L 30.40625 -80.296875 L 42.1875 -80.296875 L 42.1875 -124.953125 L 67.0625 -124.953125 L 67.0625 0 L 42.1875 0 L 42.1875 -56.734375 L 30.40625 -56.734375 L 30.40625 0 Z M 5.53125 0 "/></g></g></g><g fill="#f3f2ee" fill-opacity="1"><g transform="translate(768.378039, 197.269082)"><g><path d="M 35.34375 1.15625 C 25.257812 1.15625 17.597656 -1.921875 12.359375 -8.078125 C 7.128906 -14.234375 4.515625 -22.890625 4.515625 -34.046875 L 4.515625 -93.53125 C 4.515625 -104.300781 7.128906 -112.425781 12.359375 -117.90625 C 17.597656 -123.382812 25.257812 -126.125 35.34375 -126.125 C 45.4375 -126.125 53.097656 -123.382812 58.328125 -117.90625 C 63.566406 -112.425781 66.1875 -104.300781 66.1875 -93.53125 L 66.1875 -34.046875 C 66.1875 -22.796875 63.566406 -14.113281 58.328125 -8 C 53.097656 -1.894531 45.4375 1.15625 35.34375 1.15625 Z M 35.34375 -21.8125 C 37.570312 -21.8125 39.070312 -22.78125 39.84375 -24.71875 C 40.625 -26.664062 41.015625 -29.382812 41.015625 -32.875 L 41.015625 -93.96875 C 41.015625 -96.6875 40.648438 -98.894531 39.921875 -100.59375 C 39.203125 -102.289062 37.726562 -103.140625 35.5 -103.140625 C 31.320312 -103.140625 29.234375 -99.988281 29.234375 -93.6875 L 29.234375 -32.734375 C 29.234375 -29.140625 29.671875 -26.421875 30.546875 -24.578125 C 31.421875 -22.734375 33.019531 -21.8125 35.34375 -21.8125 Z M 35.34375 -21.8125 "/></g></g></g><g fill="#f3f2ee" fill-opacity="1"><g transform="translate(839.069076, 197.269082)"><g><path d="M 5.53125 0 L 5.53125 -124.953125 L 43.640625 -124.953125 L 54.109375 -48.734375 L 64.59375 -124.953125 L 102.984375 -124.953125 L 102.984375 0 L 80.15625 0 L 80.15625 -90.046875 L 65.75 0 L 43.34375 0 L 28.078125 -90.046875 L 28.078125 0 Z M 5.53125 0 "/></g></g></g><g fill="#f3f2ee" fill-opacity="1"><g transform="translate(947.578368, 197.269082)"><g><path d="M 5.53125 0 L 5.53125 -124.953125 L 55.5625 -124.953125 L 55.5625 -100.8125 L 30.984375 -100.8125 L 30.984375 -76.515625 L 54.546875 -76.515625 L 54.546875 -52.953125 L 30.984375 -52.953125 L 30.984375 -24.296875 L 57.171875 -24.296875 L 57.171875 0 Z M 5.53125 0 "/></g></g></g><g fill="#f3f2ee" fill-opacity="1"><g transform="translate(1007.505745, 197.269082)"><g><path d="M 35.203125 1.15625 C 23.859375 1.15625 15.664062 -1.648438 10.625 -7.265625 C 5.582031 -12.890625 3.0625 -21.957031 3.0625 -34.46875 L 3.0625 -46.703125 L 27.640625 -46.703125 L 27.640625 -31.125 C 27.640625 -24.914062 29.628906 -21.8125 33.609375 -21.8125 C 35.835938 -21.8125 37.382812 -22.46875 38.25 -23.78125 C 39.125 -25.09375 39.5625 -27.300781 39.5625 -30.40625 C 39.5625 -34.476562 39.078125 -37.847656 38.109375 -40.515625 C 37.140625 -43.179688 35.90625 -45.410156 34.40625 -47.203125 C 32.90625 -48.992188 30.210938 -51.78125 26.328125 -55.5625 L 15.5625 -66.328125 C 7.226562 -74.472656 3.0625 -83.492188 3.0625 -93.390625 C 3.0625 -104.054688 5.507812 -112.175781 10.40625 -117.75 C 15.300781 -123.332031 22.453125 -126.125 31.859375 -126.125 C 43.109375 -126.125 51.203125 -123.140625 56.140625 -117.171875 C 61.085938 -111.210938 63.5625 -101.878906 63.5625 -89.171875 L 38.109375 -89.171875 L 37.96875 -97.75 C 37.96875 -99.40625 37.503906 -100.71875 36.578125 -101.6875 C 35.660156 -102.65625 34.378906 -103.140625 32.734375 -103.140625 C 30.796875 -103.140625 29.335938 -102.601562 28.359375 -101.53125 C 27.390625 -100.46875 26.90625 -99.015625 26.90625 -97.171875 C 26.90625 -93.097656 29.234375 -88.878906 33.890625 -84.515625 L 48.4375 -70.546875 C 51.832031 -67.253906 54.644531 -64.128906 56.875 -61.171875 C 59.101562 -58.210938 60.894531 -54.71875 62.25 -50.6875 C 63.613281 -46.664062 64.296875 -41.890625 64.296875 -36.359375 C 64.296875 -24.046875 62.039062 -14.710938 57.53125 -8.359375 C 53.019531 -2.015625 45.578125 1.15625 35.203125 1.15625 Z M 35.203125 1.15625 "/></g></g></g><g fill="#f3f2ee" fill-opacity="1"><g transform="translate(555.279197, 183.903589)"><g><path d="M 109.328125 -169.390625 C 110.296875 -164.734375 110.816406 -159.972656 110.890625 -155.109375 C 111.097656 -146.453125 111.003906 -137.789062 110.609375 -129.125 C 110.222656 -120.46875 109.632812 -111.8125 108.84375 -103.15625 C 108.238281 -95.675781 107.648438 -88.195312 107.078125 -80.71875 C 106.609375 -74.5625 106.144531 -68.390625 105.6875 -62.203125 C 105.144531 -55.191406 104.550781 -48.144531 103.90625 -41.0625 C 103.257812 -34.050781 102.632812 -27 102.03125 -19.90625 C 101.382812 -11.71875 100.796875 -3.523438 100.265625 4.671875 C 100.015625 10.179688 99.726562 15.640625 99.40625 21.046875 C 99.113281 27.191406 98.804688 33.378906 98.484375 39.609375 C 97.523438 54.890625 97.171875 70.148438 97.421875 85.390625 C 97.421875 86.359375 97.347656 87.269531 97.203125 88.125 C 96.953125 89.0625 96.304688 89.617188 95.265625 89.796875 C 92.117188 90.398438 90.347656 89.21875 89.953125 86.25 C 89.742188 83.957031 89.640625 81.664062 89.640625 79.375 C 89.640625 75.050781 89.640625 70.722656 89.640625 66.390625 C 89.453125 54.765625 89.414062 43.082031 89.53125 31.34375 C 89.738281 20.394531 90.273438 9.445312 91.140625 -1.5 C 92.097656 -14.8125 93.132812 -28.101562 94.25 -41.375 C 94.925781 -49.5 95.585938 -57.570312 96.234375 -65.59375 C 97.804688 -85.664062 99.34375 -105.703125 100.84375 -125.703125 C 101.632812 -136.898438 101.796875 -148.117188 101.328125 -159.359375 C 101.078125 -166.046875 99.96875 -169.503906 98 -169.734375 C 96.03125 -169.972656 93.453125 -167.773438 90.265625 -163.140625 C 87.085938 -158.503906 83.53125 -152.148438 79.59375 -144.078125 C 75.65625 -136.015625 71.578125 -127 67.359375 -117.03125 C 63.140625 -107.0625 59.003906 -96.960938 54.953125 -86.734375 C 50.910156 -76.503906 47.171875 -66.84375 43.734375 -57.75 C 40.304688 -48.664062 37.457031 -40.957031 35.1875 -34.625 C 32.914062 -28.289062 31.382812 -24.050781 30.59375 -21.90625 C 30.34375 -21.289062 30.21875 -20.945312 30.21875 -20.875 C 26.132812 -10 21.929688 0.820312 17.609375 11.59375 C 16.347656 14.53125 14.929688 17.410156 13.359375 20.234375 C 13.035156 20.773438 12.679688 21.363281 12.296875 22 C 11.578125 23.582031 10.429688 24.640625 8.859375 25.171875 C 6.566406 25.816406 4.578125 25.804688 2.890625 25.140625 C 1.210938 24.484375 0.320312 22.722656 0.21875 19.859375 C 0.0703125 13.671875 0.125 7.5 0.375 1.34375 C 0.519531 -1.800781 0.628906 -4.988281 0.703125 -8.21875 C 1.335938 -25.320312 2.050781 -42.441406 2.84375 -59.578125 C 3.445312 -71.066406 4.109375 -82.515625 4.828125 -93.921875 C 5.398438 -102.765625 5.957031 -111.585938 6.5 -120.390625 C 6.632812 -123.929688 6.863281 -127.4375 7.1875 -130.90625 C 7.832031 -138.3125 8.15625 -145.753906 8.15625 -153.234375 C 8.15625 -154.160156 8.191406 -155.109375 8.265625 -156.078125 C 8.515625 -158.515625 9.859375 -159.734375 12.296875 -159.734375 C 14.722656 -159.734375 16.0625 -158.460938 16.3125 -155.921875 C 16.601562 -152.484375 16.691406 -148.992188 16.578125 -145.453125 C 16.472656 -141.910156 16.296875 -138.367188 16.046875 -134.828125 C 16.046875 -134.578125 16.046875 -134.328125 16.046875 -134.078125 C 15.722656 -129.847656 15.421875 -125.570312 15.140625 -121.25 C 14.742188 -116.664062 14.382812 -112.050781 14.0625 -107.40625 C 12.882812 -85.75 11.738281 -64.097656 10.625 -42.453125 C 9.84375 -27.890625 9.128906 -13.328125 8.484375 1.234375 C 8.335938 5.773438 8.773438 7.992188 9.796875 7.890625 C 10.816406 7.785156 12.15625 6.175781 13.8125 3.0625 C 15.476562 -0.0507812 17.234375 -3.851562 19.078125 -8.34375 C 20.921875 -12.832031 22.628906 -17.125 24.203125 -21.21875 C 25.773438 -25.320312 26.921875 -28.394531 27.640625 -30.4375 C 27.859375 -31.039062 28.019531 -31.46875 28.125 -31.71875 C 30.625 -38.550781 33.519531 -46.890625 36.8125 -56.734375 C 40.21875 -66.753906 43.953125 -77.40625 48.015625 -88.6875 C 52.078125 -99.976562 56.382812 -111.097656 60.9375 -122.046875 C 65.5 -132.992188 70.195312 -142.851562 75.03125 -151.625 C 79.863281 -160.394531 84.800781 -167.265625 89.84375 -172.234375 C 91.351562 -173.734375 92.960938 -174.988281 94.671875 -176 C 98.078125 -177.820312 101.175781 -178.125 103.96875 -176.90625 C 106.757812 -175.6875 108.546875 -173.179688 109.328125 -169.390625 Z M 109.328125 -169.390625 "/></g></g></g></svg>