<svg xmlns="http://www.w3.org/2000/svg" xmlns:xlink="http://www.w3.org/1999/xlink" width="1146" zoomAndPan="magnify" viewBox="0 0 859.5 289.499996" height="386" preserveAspectRatio="xMidYMid meet" version="1.0"><defs><g/></defs><g fill="#223f60" fill-opacity="1"><g transform="translate(1.781716, 200.353681)"><g><path d="M 35.1875 1.15625 C 23.84375 1.15625 15.648438 -1.648438 10.609375 -7.265625 C 5.566406 -12.890625 3.046875 -21.957031 3.046875 -34.46875 L 3.046875 -46.6875 L 27.625 -46.6875 L 27.625 -31.125 C 27.625 -24.914062 29.613281 -21.8125 33.59375 -21.8125 C 35.820312 -21.8125 37.375 -22.460938 38.25 -23.765625 C 39.125 -25.078125 39.5625 -27.285156 39.5625 -30.390625 C 39.5625 -34.460938 39.070312 -37.832031 38.09375 -40.5 C 37.125 -43.164062 35.890625 -45.394531 34.390625 -47.1875 C 32.890625 -48.976562 30.203125 -51.765625 26.328125 -55.546875 L 15.5625 -66.3125 C 7.21875 -74.457031 3.046875 -83.472656 3.046875 -93.359375 C 3.046875 -104.023438 5.492188 -112.144531 10.390625 -117.71875 C 15.285156 -123.289062 22.4375 -126.078125 31.84375 -126.078125 C 43.09375 -126.078125 51.1875 -123.09375 56.125 -117.125 C 61.070312 -111.164062 63.546875 -101.835938 63.546875 -89.140625 L 38.09375 -89.140625 L 37.953125 -97.71875 C 37.953125 -99.375 37.488281 -100.6875 36.5625 -101.65625 C 35.644531 -102.625 34.363281 -103.109375 32.71875 -103.109375 C 30.78125 -103.109375 29.328125 -102.570312 28.359375 -101.5 C 27.390625 -100.4375 26.90625 -98.984375 26.90625 -97.140625 C 26.90625 -93.066406 29.234375 -88.847656 33.890625 -84.484375 L 48.421875 -70.53125 C 51.816406 -67.226562 54.628906 -64.097656 56.859375 -61.140625 C 59.085938 -58.191406 60.878906 -54.703125 62.234375 -50.671875 C 63.597656 -46.648438 64.28125 -41.878906 64.28125 -36.359375 C 64.28125 -24.046875 62.023438 -14.710938 57.515625 -8.359375 C 53.003906 -2.015625 45.5625 1.15625 35.1875 1.15625 Z M 35.1875 1.15625 "/></g></g></g><g fill="#223f60" fill-opacity="1"><g transform="translate(68.822892, 200.353681)"><g><path d="M 16.28125 0 L 16.28125 -100.921875 L 1.453125 -100.921875 L 1.453125 -124.921875 L 56.140625 -124.921875 L 56.140625 -100.921875 L 41.296875 -100.921875 L 41.296875 0 Z M 16.28125 0 "/></g></g></g><g fill="#223f60" fill-opacity="1"><g transform="translate(126.411421, 200.353681)"><g><path d="M 20.65625 0 L 20.65625 -41.15625 L 0.734375 -124.921875 L 25.453125 -124.921875 L 32.421875 -82.59375 L 39.40625 -124.921875 L 64.125 -124.921875 L 44.203125 -41.15625 L 44.203125 0 Z M 20.65625 0 "/></g></g></g><g fill="#223f60" fill-opacity="1"><g transform="translate(191.271214, 200.353681)"><g><path d="M 5.53125 0 L 5.53125 -124.921875 L 30.53125 -124.921875 L 30.53125 -21.234375 L 56.28125 -21.234375 L 56.28125 0 Z M 5.53125 0 "/></g></g></g><g fill="#223f60" fill-opacity="1"><g transform="translate(249.005155, 200.353681)"><g><path d="M 5.53125 0 L 5.53125 -124.921875 L 55.546875 -124.921875 L 55.546875 -100.78125 L 30.96875 -100.78125 L 30.96875 -76.484375 L 54.53125 -76.484375 L 54.53125 -52.9375 L 30.96875 -52.9375 L 30.96875 -24.28125 L 57.15625 -24.28125 L 57.15625 0 Z M 5.53125 0 "/></g></g></g><g fill="#223f60" fill-opacity="1"><g transform="translate(308.908468, 200.353681)"><g/></g></g><g fill="#223f60" fill-opacity="1"><g transform="translate(342.938041, 200.353681)"><g/></g></g><g fill="#223f60" fill-opacity="1"><g transform="translate(376.967615, 200.353681)"><g/></g></g><g fill="#223f60" fill-opacity="1"><g transform="translate(410.997188, 200.353681)"><g/></g></g><g fill="#223f60" fill-opacity="1"><g transform="translate(445.026761, 200.353681)"><g/></g></g><g fill="#223f60" fill-opacity="1"><g transform="translate(479.045875, 200.353681)"><g><path d="M 5.53125 0 L 5.53125 -124.921875 L 30.390625 -124.921875 L 30.390625 -80.265625 L 42.171875 -80.265625 L 42.171875 -124.921875 L 67.046875 -124.921875 L 67.046875 0 L 42.171875 0 L 42.171875 -56.71875 L 30.390625 -56.71875 L 30.390625 0 Z M 5.53125 0 "/></g></g></g><g fill="#223f60" fill-opacity="1"><g transform="translate(551.613234, 200.353681)"><g><path d="M 35.34375 1.15625 C 25.257812 1.15625 17.597656 -1.921875 12.359375 -8.078125 C 7.128906 -14.234375 4.515625 -22.882812 4.515625 -34.03125 L 4.515625 -93.5 C 4.515625 -104.257812 7.128906 -112.378906 12.359375 -117.859375 C 17.597656 -123.335938 25.257812 -126.078125 35.34375 -126.078125 C 45.425781 -126.078125 53.082031 -123.335938 58.3125 -117.859375 C 63.550781 -112.378906 66.171875 -104.257812 66.171875 -93.5 L 66.171875 -34.03125 C 66.171875 -22.78125 63.550781 -14.101562 58.3125 -8 C 53.082031 -1.894531 45.425781 1.15625 35.34375 1.15625 Z M 35.34375 -21.8125 C 37.570312 -21.8125 39.070312 -22.78125 39.84375 -24.71875 C 40.625 -26.65625 41.015625 -29.367188 41.015625 -32.859375 L 41.015625 -93.9375 C 41.015625 -96.65625 40.648438 -98.863281 39.921875 -100.5625 C 39.191406 -102.257812 37.710938 -103.109375 35.484375 -103.109375 C 31.316406 -103.109375 29.234375 -99.957031 29.234375 -93.65625 L 29.234375 -32.71875 C 29.234375 -29.132812 29.664062 -26.421875 30.53125 -24.578125 C 31.40625 -22.734375 33.007812 -21.8125 35.34375 -21.8125 Z M 35.34375 -21.8125 "/></g></g></g><g fill="#223f60" fill-opacity="1"><g transform="translate(622.290051, 200.353681)"><g><path d="M 5.53125 0 L 5.53125 -124.921875 L 43.625 -124.921875 L 54.09375 -48.71875 L 64.5625 -124.921875 L 102.953125 -124.921875 L 102.953125 0 L 80.125 0 L 80.125 -90.015625 L 65.734375 0 L 43.328125 0 L 28.0625 -90.015625 L 28.0625 0 Z M 5.53125 0 "/></g></g></g><g fill="#223f60" fill-opacity="1"><g transform="translate(730.77751, 200.353681)"><g><path d="M 5.53125 0 L 5.53125 -124.921875 L 55.546875 -124.921875 L 55.546875 -100.78125 L 30.96875 -100.78125 L 30.96875 -76.484375 L 54.53125 -76.484375 L 54.53125 -52.9375 L 30.96875 -52.9375 L 30.96875 -24.28125 L 57.15625 -24.28125 L 57.15625 0 Z M 5.53125 0 "/></g></g></g><g fill="#223f60" fill-opacity="1"><g transform="translate(790.692835, 200.353681)"><g><path d="M 35.1875 1.15625 C 23.84375 1.15625 15.648438 -1.648438 10.609375 -7.265625 C 5.566406 -12.890625 3.046875 -21.957031 3.046875 -34.46875 L 3.046875 -46.6875 L 27.625 -46.6875 L 27.625 -31.125 C 27.625 -24.914062 29.613281 -21.8125 33.59375 -21.8125 C 35.820312 -21.8125 37.375 -22.460938 38.25 -23.765625 C 39.125 -25.078125 39.5625 -27.285156 39.5625 -30.390625 C 39.5625 -34.460938 39.070312 -37.832031 38.09375 -40.5 C 37.125 -43.164062 35.890625 -45.394531 34.390625 -47.1875 C 32.890625 -48.976562 30.203125 -51.765625 26.328125 -55.546875 L 15.5625 -66.3125 C 7.21875 -74.457031 3.046875 -83.472656 3.046875 -93.359375 C 3.046875 -104.023438 5.492188 -112.144531 10.390625 -117.71875 C 15.285156 -123.289062 22.4375 -126.078125 31.84375 -126.078125 C 43.09375 -126.078125 51.1875 -123.09375 56.125 -117.125 C 61.070312 -111.164062 63.546875 -101.835938 63.546875 -89.140625 L 38.09375 -89.140625 L 37.953125 -97.71875 C 37.953125 -99.375 37.488281 -100.6875 36.5625 -101.65625 C 35.644531 -102.625 34.363281 -103.109375 32.71875 -103.109375 C 30.78125 -103.109375 29.328125 -102.570312 28.359375 -101.5 C 27.390625 -100.4375 26.90625 -98.984375 26.90625 -97.140625 C 26.90625 -93.066406 29.234375 -88.847656 33.890625 -84.484375 L 48.421875 -70.53125 C 51.816406 -67.226562 54.628906 -64.097656 56.859375 -61.140625 C 59.085938 -58.191406 60.878906 -54.703125 62.234375 -50.671875 C 63.597656 -46.648438 64.28125 -41.878906 64.28125 -36.359375 C 64.28125 -24.046875 62.023438 -14.710938 57.515625 -8.359375 C 53.003906 -2.015625 45.5625 1.15625 35.1875 1.15625 Z M 35.1875 1.15625 "/></g></g></g><g fill="#223f60" fill-opacity="1"><g transform="translate(335.94795, 192.438279)"><g><path d="M 114.28125 -177.046875 C 115.28125 -172.179688 115.820312 -167.207031 115.90625 -162.125 C 116.125 -153.070312 116.023438 -144.019531 115.609375 -134.96875 C 115.203125 -125.914062 114.585938 -116.867188 113.765625 -107.828125 C 113.128906 -100.003906 112.515625 -92.1875 111.921875 -84.375 C 111.429688 -77.9375 110.941406 -71.484375 110.453125 -65.015625 C 109.898438 -57.679688 109.285156 -50.316406 108.609375 -42.921875 C 107.929688 -35.585938 107.273438 -28.21875 106.640625 -20.8125 C 105.972656 -12.25 105.359375 -3.6875 104.796875 4.875 C 104.535156 10.632812 104.234375 16.335938 103.890625 21.984375 C 103.597656 28.421875 103.28125 34.894531 102.9375 41.40625 C 101.925781 57.375 101.550781 73.320312 101.8125 89.25 C 101.8125 90.257812 101.738281 91.210938 101.59375 92.109375 C 101.332031 93.085938 100.660156 93.671875 99.578125 93.859375 C 96.285156 94.492188 94.429688 93.257812 94.015625 90.15625 C 93.796875 87.757812 93.6875 85.363281 93.6875 82.96875 C 93.6875 78.445312 93.6875 73.921875 93.6875 69.390625 C 93.5 57.234375 93.460938 45.023438 93.578125 32.765625 C 93.796875 21.316406 94.351562 9.867188 95.25 -1.578125 C 96.257812 -15.484375 97.347656 -29.375 98.515625 -43.25 C 99.222656 -51.738281 99.910156 -60.171875 100.578125 -68.546875 C 102.222656 -89.535156 103.832031 -110.484375 105.40625 -131.390625 C 106.226562 -143.085938 106.398438 -154.8125 105.921875 -166.5625 C 105.648438 -173.550781 104.484375 -177.164062 102.421875 -177.40625 C 100.367188 -177.65625 97.675781 -175.359375 94.34375 -170.515625 C 91.019531 -165.671875 87.300781 -159.03125 83.1875 -150.59375 C 79.082031 -142.164062 74.820312 -132.742188 70.40625 -122.328125 C 65.988281 -111.910156 61.664062 -101.351562 57.4375 -90.65625 C 53.21875 -79.957031 49.3125 -69.859375 45.71875 -60.359375 C 42.125 -50.859375 39.140625 -42.796875 36.765625 -36.171875 C 34.390625 -29.554688 32.789062 -25.128906 31.96875 -22.890625 C 31.707031 -22.253906 31.578125 -21.898438 31.578125 -21.828125 C 27.316406 -10.453125 22.925781 0.863281 18.40625 12.125 C 17.09375 15.1875 15.613281 18.195312 13.96875 21.15625 C 13.632812 21.707031 13.257812 22.320312 12.84375 23 C 12.09375 24.644531 10.894531 25.75 9.25 26.3125 C 6.863281 26.976562 4.789062 26.96875 3.03125 26.28125 C 1.269531 25.59375 0.332031 23.75 0.21875 20.75 C 0.0703125 14.28125 0.128906 7.832031 0.390625 1.40625 C 0.535156 -1.882812 0.648438 -5.210938 0.734375 -8.578125 C 1.398438 -26.453125 2.144531 -44.347656 2.96875 -62.265625 C 3.601562 -74.273438 4.296875 -86.242188 5.046875 -98.171875 C 5.648438 -107.410156 6.226562 -116.628906 6.78125 -125.828125 C 6.9375 -129.535156 7.179688 -133.203125 7.515625 -136.828125 C 8.191406 -144.566406 8.53125 -152.34375 8.53125 -160.15625 C 8.53125 -161.132812 8.566406 -162.128906 8.640625 -163.140625 C 8.898438 -165.679688 10.300781 -166.953125 12.84375 -166.953125 C 15.382812 -166.953125 16.785156 -165.625 17.046875 -162.96875 C 17.347656 -159.375 17.441406 -155.722656 17.328125 -152.015625 C 17.222656 -148.316406 17.039062 -144.617188 16.78125 -140.921875 C 16.78125 -140.660156 16.78125 -140.398438 16.78125 -140.140625 C 16.4375 -135.722656 16.113281 -131.253906 15.8125 -126.734375 C 15.40625 -121.941406 15.035156 -117.113281 14.703125 -112.25 C 13.460938 -89.625 12.265625 -67 11.109375 -44.375 C 10.285156 -29.15625 9.535156 -13.929688 8.859375 1.296875 C 8.710938 6.046875 9.171875 8.363281 10.234375 8.25 C 11.304688 8.132812 12.707031 6.445312 14.4375 3.1875 C 16.175781 -0.0625 18.007812 -4.03125 19.9375 -8.71875 C 21.863281 -13.414062 23.648438 -17.90625 25.296875 -22.1875 C 26.941406 -26.46875 28.140625 -29.675781 28.890625 -31.8125 C 29.117188 -32.445312 29.285156 -32.894531 29.390625 -33.15625 C 32.015625 -40.300781 35.046875 -49.015625 38.484375 -59.296875 C 42.035156 -69.765625 45.929688 -80.898438 50.171875 -92.703125 C 54.421875 -104.503906 58.929688 -116.125 63.703125 -127.5625 C 68.472656 -139.007812 73.378906 -149.3125 78.421875 -158.46875 C 83.472656 -167.632812 88.632812 -174.816406 93.90625 -180.015625 C 95.476562 -181.585938 97.160156 -182.898438 98.953125 -183.953125 C 102.503906 -185.859375 105.738281 -186.175781 108.65625 -184.90625 C 111.582031 -183.632812 113.457031 -181.015625 114.28125 -177.046875 Z M 114.28125 -177.046875 "/></g></g></g></svg>