<svg width="24" height="25" viewBox="0 0 24 25" fill="none" xmlns="http://www.w3.org/2000/svg">
<path d="M7 16.1748C9.20914 16.1748 11 14.3839 11 12.1748C11 9.96567 9.20914 8.1748 7 8.1748C4.79086 8.1748 3 9.96567 3 12.1748C3 14.3839 4.79086 16.1748 7 16.1748Z" stroke="white" stroke-width="1.5" stroke-linecap="round" stroke-linejoin="round"/>
<path d="M15 16.1748C16.1046 16.1748 17 14.3839 17 12.1748C17 9.96567 16.1046 8.1748 15 8.1748C13.8954 8.1748 13 9.96567 13 12.1748C13 14.3839 13.8954 16.1748 15 16.1748Z" stroke="white" stroke-width="1.5" stroke-linecap="round" stroke-linejoin="round"/>
<path d="M20 16.1748C20.5523 16.1748 21 14.3839 21 12.1748C21 9.96567 20.5523 8.1748 20 8.1748C19.4477 8.1748 19 9.96567 19 12.1748C19 14.3839 19.4477 16.1748 20 16.1748Z" stroke="white" stroke-width="1.5" stroke-linecap="round" stroke-linejoin="round"/>
</svg>
