<svg width="64" height="64" viewBox="0 0 64 64" fill="none" xmlns="http://www.w3.org/2000/svg">
<path d="M17.333 26.6666V17.2262C17.333 15.3613 18.3071 13.6318 19.902 12.6652L29.2353 7.0086C30.9344 5.9789 33.0649 5.9789 34.7639 7.0086L44.0972 12.6652C45.6921 13.6318 46.6663 15.3613 46.6663 17.2262V26.6666" stroke="#E88B3B" stroke-width="4" stroke-linecap="round" stroke-linejoin="round"/>
<path d="M42.6667 56.0002H53.3334C56.2789 56.0002 58.6667 53.6123 58.6667 50.6668V38.5598C58.6667 36.6948 57.6926 34.9653 56.0977 33.9987L46.7505 28.3338C45.0588 27.3085 42.9385 27.3038 41.2422 28.3215L39.5557 29.3335" stroke="#E88B3B" stroke-width="4" stroke-linecap="round" stroke-linejoin="round"/>
<path d="M24 55.9996V46.933C24 46.0493 23.2837 45.333 22.4 45.333H17.6C16.7163 45.333 16 46.0493 16 46.933V55.9996" stroke="#E88B3B" stroke-width="4" stroke-linecap="round" stroke-linejoin="round"/>
<path d="M29.333 56.0006H10.6664C7.72083 56.0006 5.33301 53.6128 5.33301 50.6672V38.5602C5.33301 36.6952 6.30716 34.9657 7.90207 33.9991L17.2354 28.3426C18.9345 27.3129 21.065 27.3129 22.764 28.3426L32.0973 33.9991C33.6922 34.9657 34.6664 36.6952 34.6664 38.5602V50.6672C34.6664 53.6128 32.2786 56.0006 29.333 56.0006Z" stroke="#E88B3B" stroke-width="4" stroke-linecap="round" stroke-linejoin="round"/>
<path d="M48.0003 55.9996V46.933C48.0003 46.0493 47.284 45.333 46.4003 45.333H42.667" stroke="#E88B3B" stroke-width="4" stroke-linecap="round" stroke-linejoin="round"/>
</svg>
