<svg width="40" height="40" viewBox="0 0 40 40" fill="none" xmlns="http://www.w3.org/2000/svg">
<path d="M24.167 14.1666C22.8658 13.8293 21.0576 13.3333 19.6081 13.3333C12.4609 13.3333 6.66699 17.7794 6.66699 23.2639C6.66699 26.4155 8.58023 29.2242 11.5641 31.0434L10.7556 33.7098C10.5609 34.352 11.0415 35 11.7126 35H14.6528C14.8692 35 15.0799 34.9297 15.253 34.7998L17.5773 33.0555H21.6389L23.9632 34.7998C24.1363 34.9297 24.3469 35 24.5634 35H27.5036C28.1747 35 28.6553 34.352 28.4606 33.7098L27.6521 31.0434C29.4298 29.9596 30.8275 28.5245 31.667 26.875" stroke="#EB622B" stroke-width="2.5" stroke-linecap="round" stroke-linejoin="round"/>
<path d="M24.167 14.1667L31.667 11.6667L31.527 17.7138L35.0003 19.1667V25L31.7905 26.6667" stroke="#EB622B" stroke-width="2.5" stroke-linecap="round" stroke-linejoin="round"/>
<path d="M25.8337 21.6667C25.3734 21.6667 25.0003 21.2936 25.0003 20.8333C25.0003 20.3731 25.3734 20 25.8337 20C26.2939 20 26.667 20.3731 26.667 20.8333C26.667 21.2936 26.2939 21.6667 25.8337 21.6667Z" fill="#EB622B" stroke="#EB622B" stroke-width="2.5" stroke-linecap="round" stroke-linejoin="round"/>
<path d="M3.33301 16.6667C3.33301 16.6667 3.33301 20.6667 6.66634 21.6667" stroke="#EB622B" stroke-width="2.5" stroke-linecap="round" stroke-linejoin="round"/>
<path d="M21.3347 12.9216C21.5497 12.3022 21.6667 11.6356 21.6667 10.9412C21.6667 7.65997 19.055 5 15.8333 5C12.6117 5 10 7.65997 10 10.9412C10 12.5106 10.5975 13.9379 11.5734 15" stroke="#EB622B" stroke-width="2.5" stroke-linejoin="round"/>
</svg>
