<svg width="641" height="807" viewBox="0 0 641 807" fill="none" xmlns="http://www.w3.org/2000/svg">
<g filter="url(#filter0_b_562_2)">
<rect width="641" height="807" fill="#D17C33"/>
</g>
<g filter="url(#filter1_d_562_2)">
<path d="M131.915 381.68C130.795 381.067 129.648 380.56 128.475 380.16C127.328 379.76 126.248 379.56 125.235 379.56C123.981 379.56 122.995 379.813 122.275 380.32C121.555 380.827 121.195 381.587 121.195 382.6C121.195 383.293 121.461 383.92 121.995 384.48C122.555 385.013 123.261 385.493 124.115 385.92C124.995 386.347 125.901 386.733 126.835 387.08C127.688 387.4 128.528 387.787 129.355 388.24C130.208 388.667 130.968 389.213 131.635 389.88C132.301 390.52 132.835 391.333 133.235 392.32C133.635 393.28 133.835 394.467 133.835 395.88C133.835 397.373 133.448 398.76 132.675 400.04C131.901 401.32 130.768 402.36 129.275 403.16C127.781 403.933 125.941 404.32 123.755 404.32C122.635 404.32 121.488 404.213 120.315 404C119.168 403.76 118.035 403.413 116.915 402.96C115.795 402.48 114.715 401.88 113.675 401.16L116.235 396.64C116.928 397.147 117.675 397.6 118.475 398C119.301 398.373 120.128 398.667 120.955 398.88C121.781 399.093 122.541 399.2 123.235 399.2C123.928 399.2 124.621 399.107 125.315 398.92C126.035 398.707 126.621 398.36 127.075 397.88C127.555 397.4 127.795 396.733 127.795 395.88C127.795 395.293 127.595 394.76 127.195 394.28C126.821 393.8 126.301 393.36 125.635 392.96C124.995 392.56 124.288 392.213 123.515 391.92C122.608 391.573 121.675 391.173 120.715 390.72C119.755 390.267 118.848 389.72 117.995 389.08C117.168 388.413 116.488 387.6 115.955 386.64C115.448 385.653 115.195 384.453 115.195 383.04C115.195 381.333 115.568 379.853 116.315 378.6C117.088 377.347 118.168 376.36 119.555 375.64C120.941 374.893 122.541 374.48 124.355 374.4C126.728 374.4 128.648 374.68 130.115 375.24C131.608 375.8 132.941 376.467 134.115 377.24L131.915 381.68ZM164.275 374.56V404H158.475V392.04H145.315V404H139.515V374.56H145.315V386.44H158.475V374.56H164.275ZM170.059 389.32C170.059 387.293 170.445 385.373 171.219 383.56C171.992 381.747 173.059 380.147 174.419 378.76C175.805 377.347 177.405 376.24 179.219 375.44C181.032 374.64 182.979 374.24 185.059 374.24C187.112 374.24 189.045 374.64 190.859 375.44C192.672 376.24 194.272 377.347 195.659 378.76C197.072 380.147 198.165 381.747 198.939 383.56C199.739 385.373 200.139 387.293 200.139 389.32C200.139 391.4 199.739 393.347 198.939 395.16C198.165 396.973 197.072 398.573 195.659 399.96C194.272 401.32 192.672 402.387 190.859 403.16C189.045 403.933 187.112 404.32 185.059 404.32C182.979 404.32 181.032 403.933 179.219 403.16C177.405 402.387 175.805 401.32 174.419 399.96C173.059 398.573 171.992 396.973 171.219 395.16C170.445 393.347 170.059 391.4 170.059 389.32ZM176.059 389.32C176.059 390.627 176.285 391.853 176.739 393C177.219 394.12 177.872 395.12 178.699 396C179.552 396.853 180.525 397.52 181.619 398C182.739 398.48 183.952 398.72 185.259 398.72C186.512 398.72 187.672 398.48 188.739 398C189.832 397.52 190.779 396.853 191.579 396C192.379 395.12 193.005 394.12 193.459 393C193.912 391.853 194.139 390.627 194.139 389.32C194.139 387.987 193.899 386.747 193.419 385.6C192.965 384.453 192.325 383.453 191.499 382.6C190.699 381.72 189.752 381.04 188.659 380.56C187.565 380.08 186.379 379.84 185.099 379.84C183.819 379.84 182.632 380.08 181.539 380.56C180.445 381.04 179.485 381.72 178.659 382.6C177.832 383.453 177.192 384.453 176.739 385.6C176.285 386.747 176.059 387.987 176.059 389.32ZM214.841 374.56C217.268 374.56 219.321 374.973 221.001 375.8C222.681 376.6 223.961 377.747 224.841 379.24C225.721 380.707 226.161 382.453 226.161 384.48C226.161 385.68 225.974 386.893 225.601 388.12C225.254 389.32 224.681 390.413 223.881 391.4C223.108 392.387 222.054 393.187 220.721 393.8C219.414 394.387 217.801 394.68 215.881 394.68H211.721V404H205.921V374.56H214.841ZM215.841 389.04C216.721 389.04 217.454 388.893 218.041 388.6C218.628 388.28 219.081 387.893 219.401 387.44C219.748 386.96 219.988 386.467 220.121 385.96C220.281 385.453 220.361 385.013 220.361 384.64C220.361 384.347 220.308 383.96 220.201 383.48C220.121 382.973 219.934 382.467 219.641 381.96C219.348 381.453 218.894 381.027 218.281 380.68C217.694 380.333 216.894 380.16 215.881 380.16H211.721V389.04H215.841ZM252.999 374.56C256.065 374.56 258.505 375.187 260.319 376.44C262.132 377.667 263.039 379.507 263.039 381.96C263.039 383.773 262.585 385.293 261.679 386.52C260.799 387.72 259.585 388.627 258.039 389.24C256.519 389.827 254.772 390.12 252.799 390.12L251.879 387C254.305 387 256.452 387.333 258.319 388C260.212 388.667 261.705 389.627 262.799 390.88C263.892 392.107 264.439 393.587 264.439 395.32C264.439 396.92 264.145 398.28 263.559 399.4C262.999 400.493 262.225 401.387 261.239 402.08C260.279 402.747 259.185 403.24 257.959 403.56C256.732 403.853 255.465 404 254.159 404H244.359V374.56H252.999ZM253.679 386.6C254.825 386.6 255.665 386.253 256.199 385.56C256.759 384.867 257.039 384.08 257.039 383.2C257.039 382.187 256.692 381.427 255.999 380.92C255.332 380.413 254.425 380.16 253.279 380.16H250.159V386.6H253.679ZM253.879 398.6C254.732 398.6 255.505 398.493 256.199 398.28C256.892 398.04 257.439 397.68 257.839 397.2C258.239 396.693 258.439 396.067 258.439 395.32C258.439 394.467 258.199 393.827 257.719 393.4C257.239 392.947 256.612 392.64 255.839 392.48C255.092 392.293 254.305 392.2 253.479 392.2H250.159V398.6H253.879ZM276.295 394.84L265.455 374.56H272.615L280.215 389.84L278.495 389.96L285.975 374.56H293.135L282.095 394.84V404H276.295V394.84ZM332.61 401.56C332.29 401.827 331.69 402.187 330.81 402.64C329.957 403.093 328.904 403.493 327.65 403.84C326.397 404.187 325.01 404.347 323.49 404.32C321.17 404.267 319.09 403.853 317.25 403.08C315.437 402.28 313.89 401.2 312.61 399.84C311.357 398.48 310.397 396.92 309.73 395.16C309.064 393.4 308.73 391.52 308.73 389.52C308.73 387.28 309.064 385.227 309.73 383.36C310.424 381.493 311.397 379.88 312.65 378.52C313.93 377.16 315.45 376.107 317.21 375.36C318.97 374.613 320.917 374.24 323.05 374.24C325.024 374.24 326.77 374.507 328.29 375.04C329.81 375.573 331.05 376.147 332.01 376.76L329.73 382.24C329.064 381.733 328.17 381.213 327.05 380.68C325.957 380.12 324.69 379.84 323.25 379.84C322.13 379.84 321.05 380.08 320.01 380.56C318.997 381.013 318.09 381.667 317.29 382.52C316.517 383.373 315.904 384.373 315.45 385.52C314.997 386.64 314.77 387.867 314.77 389.2C314.77 390.613 314.97 391.907 315.37 393.08C315.797 394.253 316.397 395.267 317.17 396.12C317.944 396.947 318.864 397.587 319.93 398.04C321.024 398.493 322.25 398.72 323.61 398.72C325.184 398.72 326.53 398.467 327.65 397.96C328.77 397.453 329.624 396.92 330.21 396.36L332.61 401.56ZM335.101 404L348.381 373.4H348.701L361.981 404H355.261L346.781 382.48L350.981 379.6L340.821 404H335.101ZM344.181 393.36H353.021L355.061 398.24H342.381L344.181 393.36ZM361.89 374.56H381.73V380.16H374.57V404H368.77V380.16H361.89V374.56ZM387.327 374.56H407.407V380.16H393.127V386.44H405.767V392.04H393.127V398.4H407.967V404H387.327V374.56ZM437.848 401.04C437.501 401.413 436.955 401.8 436.208 402.2C435.461 402.573 434.595 402.92 433.608 403.24C432.648 403.56 431.661 403.813 430.648 404C429.635 404.213 428.675 404.32 427.768 404.32C425.368 404.32 423.208 403.973 421.288 403.28C419.368 402.56 417.728 401.573 416.368 400.32C415.008 399.04 413.968 397.533 413.248 395.8C412.528 394.067 412.168 392.173 412.168 390.12C412.168 387.427 412.568 385.093 413.368 383.12C414.195 381.12 415.301 379.467 416.688 378.16C418.101 376.827 419.715 375.84 421.528 375.2C423.368 374.56 425.288 374.24 427.288 374.24C429.181 374.24 430.915 374.453 432.488 374.88C434.061 375.28 435.395 375.787 436.488 376.4L434.608 381.8C434.128 381.533 433.488 381.267 432.688 381C431.888 380.733 431.075 380.52 430.248 380.36C429.421 380.173 428.688 380.08 428.048 380.08C426.448 380.08 425.035 380.28 423.808 380.68C422.581 381.08 421.541 381.68 420.688 382.48C419.861 383.28 419.235 384.28 418.808 385.48C418.381 386.653 418.168 388.027 418.168 389.6C418.168 390.987 418.408 392.24 418.888 393.36C419.368 394.453 420.035 395.387 420.888 396.16C421.768 396.933 422.795 397.52 423.968 397.92C425.168 398.32 426.488 398.52 427.928 398.52C428.755 398.52 429.515 398.467 430.208 398.36C430.901 398.227 431.488 398.027 431.968 397.76V394.2H426.888V388.6H437.848V401.04ZM442.637 389.32C442.637 387.293 443.023 385.373 443.797 383.56C444.57 381.747 445.637 380.147 446.997 378.76C448.383 377.347 449.983 376.24 451.797 375.44C453.61 374.64 455.557 374.24 457.637 374.24C459.69 374.24 461.623 374.64 463.437 375.44C465.25 376.24 466.85 377.347 468.237 378.76C469.65 380.147 470.743 381.747 471.517 383.56C472.317 385.373 472.717 387.293 472.717 389.32C472.717 391.4 472.317 393.347 471.517 395.16C470.743 396.973 469.65 398.573 468.237 399.96C466.85 401.32 465.25 402.387 463.437 403.16C461.623 403.933 459.69 404.32 457.637 404.32C455.557 404.32 453.61 403.933 451.797 403.16C449.983 402.387 448.383 401.32 446.997 399.96C445.637 398.573 444.57 396.973 443.797 395.16C443.023 393.347 442.637 391.4 442.637 389.32ZM448.637 389.32C448.637 390.627 448.863 391.853 449.317 393C449.797 394.12 450.45 395.12 451.277 396C452.13 396.853 453.103 397.52 454.197 398C455.317 398.48 456.53 398.72 457.837 398.72C459.09 398.72 460.25 398.48 461.317 398C462.41 397.52 463.357 396.853 464.157 396C464.957 395.12 465.583 394.12 466.037 393C466.49 391.853 466.717 390.627 466.717 389.32C466.717 387.987 466.477 386.747 465.997 385.6C465.543 384.453 464.903 383.453 464.077 382.6C463.277 381.72 462.33 381.04 461.237 380.56C460.143 380.08 458.957 379.84 457.677 379.84C456.397 379.84 455.21 380.08 454.117 380.56C453.023 381.04 452.063 381.72 451.237 382.6C450.41 383.453 449.77 384.453 449.317 385.6C448.863 386.747 448.637 387.987 448.637 389.32ZM487.419 374.56C489.259 374.56 490.899 374.8 492.339 375.28C493.779 375.733 494.979 376.4 495.939 377.28C496.926 378.133 497.673 379.173 498.179 380.4C498.686 381.6 498.939 382.96 498.939 384.48C498.939 385.68 498.753 386.88 498.379 388.08C498.033 389.28 497.446 390.373 496.619 391.36C495.819 392.347 494.753 393.147 493.419 393.76C492.086 394.347 490.433 394.64 488.459 394.64H484.299V404H478.499V374.56H487.419ZM488.419 389.04C489.299 389.04 490.033 388.893 490.619 388.6C491.206 388.307 491.659 387.933 491.979 387.48C492.326 387.027 492.566 386.56 492.699 386.08C492.859 385.573 492.939 385.107 492.939 384.68C492.939 384.36 492.886 383.96 492.779 383.48C492.699 382.973 492.513 382.467 492.219 381.96C491.926 381.453 491.473 381.027 490.859 380.68C490.273 380.333 489.473 380.16 488.459 380.16H484.299V389.04H488.419ZM493.859 392.64L501.139 404H494.379L486.939 392.8L493.859 392.64ZM511.178 394.84L500.338 374.56H507.498L515.098 389.84L513.378 389.96L520.858 374.56H528.018L516.978 394.84V404H511.178V394.84Z" fill="#F3F2EE"/>
</g>
<defs>
<filter id="filter0_b_562_2" x="-4" y="-4" width="649" height="815" filterUnits="userSpaceOnUse" color-interpolation-filters="sRGB">
<feFlood flood-opacity="0" result="BackgroundImageFix"/>
<feGaussianBlur in="BackgroundImageFix" stdDeviation="2"/>
<feComposite in2="SourceAlpha" operator="in" result="effect1_backgroundBlur_562_2"/>
<feBlend mode="normal" in="SourceGraphic" in2="effect1_backgroundBlur_562_2" result="shape"/>
</filter>
<filter id="filter1_d_562_2" x="109.674" y="369.4" width="422.344" height="38.96" filterUnits="userSpaceOnUse" color-interpolation-filters="sRGB">
<feFlood flood-opacity="0" result="BackgroundImageFix"/>
<feColorMatrix in="SourceAlpha" type="matrix" values="0 0 0 0 0 0 0 0 0 0 0 0 0 0 0 0 0 0 127 0" result="hardAlpha"/>
<feOffset/>
<feGaussianBlur stdDeviation="2"/>
<feComposite in2="hardAlpha" operator="out"/>
<feColorMatrix type="matrix" values="0 0 0 0 0 0 0 0 0 0 0 0 0 0 0 0 0 0 0.25 0"/>
<feBlend mode="normal" in2="BackgroundImageFix" result="effect1_dropShadow_562_2"/>
<feBlend mode="normal" in="SourceGraphic" in2="effect1_dropShadow_562_2" result="shape"/>
</filter>
</defs>
</svg>
