<svg width="231" height="231" viewBox="0 0 231 231" fill="none" xmlns="http://www.w3.org/2000/svg">
<path d="M142.2 46.8336C142.2 37.0499 134.24 29.0908 124.455 29.0908C114.67 29.0908 106.709 37.0499 106.709 46.8336C106.709 56.6168 114.67 64.5759 124.455 64.5759C134.24 64.5755 142.2 56.6164 142.2 46.8336ZM113.492 46.8336C113.492 40.7897 118.409 35.8724 124.455 35.8724C130.499 35.8724 135.417 40.7897 135.417 46.8336C135.417 52.8775 130.499 57.7944 124.455 57.7944C118.41 57.7944 113.492 52.8775 113.492 46.8336ZM93.2818 51.2592C93.2818 41.4759 85.3213 33.5168 75.5363 33.5168C65.7513 33.5168 57.7908 41.4759 57.7908 51.2592C57.7908 61.0424 65.7513 69.0015 75.5363 69.0015C85.3213 69.0015 93.2818 61.0424 93.2818 51.2592ZM64.5737 51.2592C64.5737 45.2153 69.4915 40.2984 75.5367 40.2984C81.5815 40.2984 86.4997 45.2153 86.4997 51.2592C86.4997 57.303 81.582 62.2199 75.5367 62.2199C69.4915 62.2204 64.5737 57.3035 64.5737 51.2592ZM44.5033 69.8619C34.7187 69.8619 26.7578 77.821 26.7578 87.6042C26.7578 97.3874 34.7183 105.347 44.5033 105.347C54.2883 105.347 62.2488 97.3874 62.2488 87.6042C62.2488 77.821 54.2883 69.8619 44.5033 69.8619ZM44.5033 98.565C38.4585 98.565 33.5403 93.6481 33.5403 87.6042C33.5403 81.5603 38.4581 76.6434 44.5033 76.6434C50.5486 76.6434 55.4663 81.5603 55.4663 87.6042C55.4663 93.6481 50.5481 98.565 44.5033 98.565ZM36.6317 134.306C36.6317 144.089 44.5922 152.048 54.3768 152.048C64.1613 152.048 72.1218 144.089 72.1218 134.306C72.1218 124.523 64.1613 116.564 54.3768 116.564C44.5922 116.564 36.6317 124.523 36.6317 134.306ZM65.3398 134.306C65.3398 140.35 60.422 145.267 54.3768 145.267C48.332 145.267 43.4142 140.35 43.4142 134.306C43.4142 128.262 48.332 123.345 54.3768 123.345C60.4216 123.345 65.3398 128.262 65.3398 134.306ZM145.237 186.21C145.237 176.426 137.276 168.467 127.491 168.467C117.707 168.467 109.746 176.426 109.746 186.21C109.746 195.993 117.707 203.952 127.491 203.952C137.276 203.952 145.237 195.993 145.237 186.21ZM116.529 186.21C116.529 180.166 121.447 175.249 127.491 175.249C133.537 175.249 138.454 180.166 138.454 186.21C138.454 192.254 133.537 197.171 127.491 197.171C121.447 197.171 116.529 192.254 116.529 186.21ZM190.579 171.858C190.579 162.075 182.619 154.116 172.834 154.116C163.049 154.116 155.088 162.075 155.088 171.858C155.088 181.642 163.049 189.601 172.834 189.601C182.619 189.601 190.579 181.641 190.579 171.858ZM161.871 171.858C161.871 165.814 166.789 160.898 172.834 160.898C178.879 160.898 183.797 165.814 183.797 171.858C183.797 177.902 178.879 182.819 172.834 182.819C166.789 182.819 161.871 177.902 161.871 171.858Z" fill="#E88B3B"/>
<path d="M208.58 56.0918C208.288 56.4276 208.064 56.8176 207.922 57.2398C207.781 57.6619 207.723 58.1078 207.754 58.5521C207.785 58.9963 207.902 59.4301 208.101 59.8288C208.299 60.2275 208.574 60.5832 208.91 60.8756C209.246 61.1682 209.636 61.3918 210.058 61.5336C210.48 61.6753 210.926 61.7326 211.37 61.7019C211.815 61.6713 212.249 61.5534 212.647 61.3551C213.046 61.1567 213.402 60.8817 213.694 60.5458L227.53 44.6637C232.402 39.0718 232.11 30.5839 226.865 25.34C221.621 20.0964 213.132 19.8045 207.538 24.6749L183.825 45.3264C176.414 26.4909 161.286 13.3244 137.725 5.17394C117.816 -1.7132 93.5813 -1.72538 71.2362 5.14191C47.6827 12.3792 27.8199 26.5478 15.3053 45.0372C15.0557 45.406 14.8812 45.8203 14.7917 46.2564C14.7023 46.6926 14.6997 47.1422 14.784 47.5794C14.8684 48.0166 15.038 48.4329 15.2833 48.8045C15.5286 49.1761 15.8446 49.4958 16.2135 49.7452C16.9584 50.2493 17.873 50.4368 18.7561 50.2666C19.6393 50.0964 20.4187 49.5823 20.9228 48.8375C32.573 31.6243 51.1491 18.4086 73.229 11.6234C94.2288 5.17033 116.929 5.15454 135.507 11.5819C158.001 19.3624 172.04 31.9722 178.36 50.0849L118.253 102.43C117.86 102.774 117.551 103.202 117.35 103.683L109.186 123.279C105.41 120.406 99.9857 120.683 96.5392 124.129C93.6594 127.009 92.9939 131.268 94.5256 134.795C90.8891 135.568 87.5545 137.378 84.9252 140.007C78.2153 146.716 72.1728 173.592 71.506 176.635C70.9858 179.007 73.1712 181.194 75.5444 180.673C78.5875 180.006 105.469 173.965 112.179 167.256C114.808 164.627 116.618 161.293 117.391 157.657C118.606 158.187 119.916 158.461 121.24 158.463C123.71 158.463 126.179 157.523 128.059 155.644C131.506 152.197 131.783 146.775 128.91 142.999L148.509 134.836C148.99 134.635 149.419 134.326 149.762 133.933L181.021 98.0513C180.272 103.875 179.225 110.202 177.858 117.163C175.97 126.78 183.306 133.311 191.073 140.227C196.981 145.487 203.09 150.926 206.445 158.342C210.237 166.725 209.718 176.426 204.858 188.001C199.302 201.234 184.95 212.459 165.482 218.797C163.793 219.347 162.8 221.172 163.254 222.889C163.745 224.746 165.754 225.84 167.582 225.246C188.927 218.297 204.793 205.678 211.112 190.626C223.836 160.318 207.507 145.779 195.584 135.163C188.012 128.421 183.426 124.008 184.514 118.47C186.705 107.31 188.099 97.707 188.77 89.1569L204.783 70.7757C205.076 70.44 205.299 70.0499 205.441 69.6278C205.583 69.2056 205.64 68.7597 205.609 68.3155C205.578 67.8712 205.461 67.4374 205.262 67.0387C205.064 66.64 204.789 66.2843 204.453 65.9919C203.775 65.4013 202.89 65.1043 201.993 65.1661C201.095 65.228 200.259 65.6436 199.669 66.3217L147.035 126.739L125.449 105.157L211.993 29.7881C214.909 27.2484 219.335 27.4009 222.069 30.135C224.803 32.8687 224.956 37.2938 222.416 40.2092L208.58 56.0918ZM107.383 162.461C103.979 165.864 90.0654 170.154 79.369 172.81C82.0259 162.116 86.317 148.205 89.7207 144.802C91.0542 143.468 92.6729 142.454 94.4549 141.836C96.2368 141.218 98.1357 141.012 100.009 141.234L110.951 152.174C111.173 154.047 110.967 155.945 110.349 157.727C109.731 159.509 108.717 161.127 107.383 162.461ZM123.263 150.848C122.726 151.384 121.998 151.685 121.24 151.685C120.482 151.685 119.754 151.384 119.217 150.848L101.335 132.969C100.799 132.432 100.498 131.705 100.498 130.947C100.498 130.188 100.799 129.461 101.335 128.925C102.436 127.823 104.279 127.823 105.38 128.925L123.263 146.804C123.798 147.341 124.099 148.068 124.099 148.826C124.099 149.584 123.798 150.312 123.263 150.848ZM123.821 137.772L114.414 128.367L121.664 110.966L141.225 130.524L123.821 137.772Z" fill="#E88B3B"/>
<path d="M152.742 222.076C128.286 226.811 102.361 223.647 79.7401 213.165C53.0312 200.79 32.0111 178.57 18.9519 148.908C11.3145 131.56 7.22012 114.88 6.78248 99.331C6.3859 85.2314 8.98555 72.0536 14.5092 60.1639C14.8718 59.3506 14.8999 58.4274 14.5876 57.5935C14.2753 56.7596 13.6476 56.0821 12.84 55.7071C12.0324 55.332 11.1097 55.2897 10.2711 55.5891C9.43255 55.8886 8.74538 56.5058 8.35797 57.3075C-4.11873 84.1635 -2.60235 116.783 12.7443 151.64C26.4784 182.835 48.6589 206.238 76.8883 219.318C93.546 227.037 111.901 231 130.244 231C138.222 231 146.199 230.25 154.032 228.733C154.469 228.649 154.885 228.479 155.257 228.234C155.629 227.988 155.948 227.672 156.197 227.303C156.447 226.934 156.621 226.519 156.71 226.083C156.799 225.647 156.801 225.197 156.717 224.76C156.36 222.921 154.579 221.721 152.742 222.076Z" fill="#E88B3B"/>
</svg>
