<svg width="231" height="231" viewBox="0 0 231 231" fill="none" xmlns="http://www.w3.org/2000/svg">
<g clip-path="url(#clip0_1144_1329)">
<path d="M84.3336 136.055H31.4143C26.4654 136.055 22.2592 140.103 22.3038 145.05C22.3471 149.853 26.1911 153.746 30.974 153.875L27.0136 153.874C22.007 153.874 17.964 158 18.1021 163.037C18.2352 167.892 22.3413 171.7 27.1986 171.7H30.1299L30.0825 171.721C25.0758 171.721 21.0329 175.847 21.1709 180.885C21.304 185.74 25.4101 189.548 30.2679 189.548H34.98C30.1691 189.633 26.2872 193.527 26.2272 198.343C26.165 203.308 30.373 207.37 35.3391 207.37H49.3259M136.126 146.651H113.437C108.015 130.32 94.684 124.925 84.3336 120.286M65.1169 207.371H91.4319C99.997 207.371 107.459 202.666 111.386 195.702H136.126M207.45 195.702H218.29C223.441 195.702 227.617 191.527 227.617 186.377V155.976C227.617 150.826 223.441 146.651 218.29 146.651H207.454M34.98 189.548H60.2902M60.2902 153.874H30.9736M30.1299 171.701H60.2902" stroke="#E88B3B" stroke-width="7.27378" stroke-miterlimit="10" stroke-linecap="round" stroke-linejoin="round"/>
<path d="M146.724 94.9455V117.545C130.39 122.966 124.994 136.295 120.355 146.644M136.126 146.644V199.555C136.126 204.503 140.174 208.709 145.123 208.664C149.927 208.621 153.82 204.777 153.949 199.995L153.948 203.955C153.948 208.961 158.075 213.003 163.113 212.866C167.969 212.733 171.777 208.627 171.777 203.77V200.84M171.777 200.84L171.798 200.887C171.798 205.893 175.925 209.935 180.963 209.797C185.819 209.664 189.628 205.558 189.628 200.702V195.99M171.777 200.84V170.684M189.628 195.99C189.713 200.8 193.608 204.681 198.425 204.741C203.391 204.803 207.453 200.596 207.453 195.631V139.547C207.453 130.983 202.747 123.522 195.782 119.596V94.9451M189.628 195.99V170.684M195.782 23.6351V12.7086C195.782 7.55848 191.607 3.38379 186.456 3.38379H156.05C150.899 3.38379 146.724 7.55893 146.724 12.7086V23.6288M153.948 170.684V199.996M23.6076 35.2983H12.7104C7.55939 35.2983 3.38379 39.473 3.38379 44.6232V75.024C3.38379 80.1741 7.55939 84.3488 12.7104 84.3488H23.6044" stroke="#E88B3B" stroke-width="7.27378" stroke-miterlimit="10" stroke-linecap="round" stroke-linejoin="round"/>
<path d="M146.667 94.9452H199.587C204.536 94.9452 208.742 90.8973 208.697 85.9497C208.654 81.1465 204.81 77.2538 200.027 77.1248L203.987 77.1262C208.994 77.1262 213.037 72.9997 212.899 67.9624C212.766 63.1073 208.66 59.2995 203.802 59.2995H200.871M200.871 59.2995L200.918 59.2787C205.925 59.2787 209.968 55.1523 209.83 50.1149C209.697 45.2599 205.59 41.452 200.733 41.452H196.021M200.871 59.2995L170.71 59.299M196.021 41.452C200.831 41.3663 204.713 37.4727 204.773 32.6564C204.836 27.6917 200.628 23.6294 195.661 23.6294H183.983M196.021 41.452L170.71 41.4515M94.9315 84.3485H117.563C122.985 100.68 136.316 106.075 146.666 110.714M168.192 23.6289H139.569C131.003 23.6289 123.542 28.3342 119.615 35.298H94.9315M170.71 77.1257H200.027M41.4297 35.0097V60.3155M77.1093 60.3155V31.0038M59.2799 30.1601V60.3155" stroke="#E88B3B" stroke-width="7.27378" stroke-miterlimit="10" stroke-linecap="round" stroke-linejoin="round"/>
<path d="M84.3326 136.054L84.3331 113.455C100.667 108.033 106.063 94.7045 110.702 84.3555M94.9311 84.3559V31.4447C94.9311 26.4967 90.8827 22.2909 85.9338 22.3356C81.1302 22.3789 77.2366 26.222 77.1075 31.0044L77.1089 27.0445C77.1089 22.0387 72.9816 17.9967 67.9438 18.1343C63.0878 18.2674 59.2795 22.3726 59.2795 27.2294V30.1603L59.2587 30.1129C59.2587 25.1071 55.1314 21.0651 50.0936 21.2031C45.2377 21.3362 41.4293 25.4419 41.4293 30.2983V35.0099C41.3436 30.1995 37.4491 26.319 32.6319 26.2585C27.6663 26.1967 23.6035 30.4039 23.6035 35.369V91.4529C23.6035 100.017 28.3097 107.478 35.2744 111.404V136.055M35.338 207.371C35.3168 207.371 35.2961 207.367 35.2744 207.367V218.291C35.2744 223.441 39.45 227.616 44.6011 227.616H75.0064C80.1575 227.616 84.3331 223.441 84.3331 218.291V207.371" stroke="#E88B3B" stroke-width="7.27378" stroke-miterlimit="10" stroke-linecap="round" stroke-linejoin="round"/>
</g>
<defs>
<clipPath id="clip0_1144_1329">
<rect width="231" height="231" fill="white"/>
</clipPath>
</defs>
</svg>
