<svg width="231" height="231" viewBox="0 0 231 231" fill="none" xmlns="http://www.w3.org/2000/svg">
<g clip-path="url(#clip0_1144_1339)">
<path d="M32.5993 230.592C32.1245 230.592 31.6543 230.499 31.2155 230.317C30.7768 230.136 30.3782 229.87 30.0425 229.534C29.7067 229.198 29.4405 228.8 29.2589 228.361C29.0774 227.922 28.9841 227.452 28.9844 226.977V111.886C28.9841 111.412 29.0774 110.941 29.2589 110.503C29.4405 110.064 29.7067 109.665 30.0425 109.33C30.3782 108.994 30.7768 108.728 31.2155 108.546C31.6543 108.364 32.1245 108.271 32.5993 108.271C33.5577 108.272 34.4766 108.654 35.1543 109.331C35.832 110.009 36.2131 110.928 36.2141 111.886V226.978C36.2233 228.971 34.6016 230.592 32.5993 230.592ZM198.419 230.592C197.945 230.592 197.474 230.499 197.036 230.317C196.597 230.136 196.198 229.87 195.863 229.534C195.527 229.198 195.261 228.8 195.079 228.361C194.898 227.922 194.804 227.452 194.805 226.977V111.886C194.805 109.884 196.425 108.271 198.419 108.271C200.413 108.271 202.034 109.892 202.034 111.886V226.978C202.033 227.936 201.652 228.855 200.974 229.532C200.296 230.21 199.378 230.591 198.419 230.592Z" fill="#E88B3B"/>
<path d="M210.034 126.584C209.103 126.586 208.208 126.227 207.536 125.583L115.514 37.7603L23.4834 125.583C22.7921 126.247 21.8533 126.593 20.9054 126.584C19.9472 126.558 19.0374 126.157 18.3717 125.468L3.81546 110.212C3.48712 109.869 3.22962 109.464 3.05768 109.022C2.88574 108.579 2.80274 108.107 2.81341 107.632C2.82409 107.157 2.92824 106.689 3.1199 106.255C3.31157 105.82 3.58699 105.428 3.93042 105.1L28.9757 81.1975V25.7029C28.9754 25.2281 29.0687 24.7579 29.2503 24.3191C29.4319 23.8804 29.6981 23.4818 30.0338 23.1461C30.3696 22.8103 30.7682 22.5441 31.2069 22.3625C31.6456 22.181 32.1158 22.0877 32.5906 22.088H62.3936C62.8684 22.0877 63.3386 22.181 63.7773 22.3625C64.216 22.5441 64.6147 22.8103 64.9504 23.1461C65.2861 23.4818 65.5524 23.8804 65.7339 24.3191C65.9155 24.7579 66.0088 25.2281 66.0085 25.7029V45.8489L112.998 1.00318C113.671 0.359376 114.566 0 115.497 0C116.427 0 117.322 0.359376 117.995 1.00318L227.071 105.1C227.415 105.428 227.69 105.82 227.882 106.255C228.074 106.689 228.178 107.157 228.189 107.632C228.199 108.107 228.116 108.579 227.944 109.022C227.772 109.464 227.514 109.869 227.186 110.212L212.63 125.468C212.301 125.811 211.909 126.086 211.474 126.278C211.039 126.469 210.571 126.573 210.096 126.584H210.034ZM115.514 29.1495C116.408 29.1495 117.312 29.486 118.012 30.1507L209.919 117.858L219.478 107.838L115.514 8.622L64.9091 56.9143C63.8638 57.9155 62.3137 58.1904 60.9844 57.6231C59.655 57.0559 58.7871 55.7449 58.7871 54.3006V29.3177H36.223V82.7484C36.2226 83.2368 36.1235 83.7201 35.9317 84.1692C35.7399 84.6183 35.4594 85.0241 35.1069 85.3621L11.5591 107.838L21.1186 117.858L113.026 30.1507C113.706 29.4769 114.61 29.1495 115.514 29.1495Z" fill="#E88B3B"/>
<path d="M70.2869 157.449C69.8026 157.451 69.323 157.354 68.877 157.165C68.4309 156.976 68.0277 156.699 67.6914 156.351C61.8801 150.389 58.6816 142.513 58.6816 134.176C58.6816 116.652 72.9364 102.389 90.4687 102.389C102.402 102.389 113.228 108.98 118.712 119.585C118.931 120.006 119.064 120.467 119.104 120.94C119.145 121.413 119.091 121.89 118.947 122.342C118.803 122.795 118.572 123.214 118.265 123.577C117.959 123.94 117.584 124.239 117.162 124.457C116.741 124.676 116.28 124.809 115.807 124.849C115.334 124.889 114.857 124.836 114.405 124.692C113.952 124.548 113.532 124.316 113.17 124.01C112.807 123.704 112.508 123.329 112.29 122.907C108.046 114.712 99.6917 109.618 90.4695 109.618C76.9327 109.618 65.9205 120.63 65.9205 134.167C65.9073 140.565 68.4044 146.714 72.8755 151.292C73.2068 151.632 73.4679 152.034 73.6437 152.475C73.8195 152.916 73.9066 153.387 73.9 153.862C73.8934 154.337 73.7933 154.806 73.6053 155.242C73.4174 155.678 73.1453 156.073 72.8047 156.403C72.4757 156.736 72.0835 157 71.6512 157.18C71.2189 157.36 70.755 157.451 70.2869 157.449Z" fill="#E88B3B"/>
<path d="M160.705 157.449C159.761 157.453 158.854 157.083 158.181 156.422C157.84 156.091 157.568 155.696 157.38 155.26C157.192 154.824 157.092 154.355 157.085 153.88C157.079 153.406 157.166 152.934 157.342 152.493C157.517 152.052 157.778 151.65 158.11 151.31C162.593 146.703 165.065 140.626 165.065 134.185C165.065 120.648 154.053 109.636 140.516 109.636C131.302 109.636 122.939 114.721 118.696 122.916C117.774 124.688 115.595 125.388 113.823 124.466C112.051 123.545 111.351 121.365 112.273 119.594C117.757 108.989 128.583 102.406 140.517 102.406C158.041 102.406 172.304 116.661 172.304 134.193C172.304 142.521 169.105 150.397 163.294 156.359C162.958 156.706 162.556 156.982 162.111 157.169C161.666 157.356 161.188 157.452 160.705 157.449Z" fill="#E88B3B"/>
<path d="M115.496 197.229C114.615 197.229 113.764 196.908 113.104 196.325L67.8947 156.538C67.1749 155.905 66.736 155.011 66.6745 154.054C66.6129 153.097 66.9338 152.155 67.5665 151.435C68.2 150.715 69.0934 150.276 70.0503 150.214C71.0072 150.153 71.9494 150.474 72.6699 151.107L115.496 188.794L158.313 151.116C158.669 150.801 159.084 150.56 159.534 150.407C159.983 150.253 160.459 150.189 160.933 150.22C161.407 150.25 161.871 150.374 162.297 150.584C162.723 150.794 163.104 151.086 163.417 151.444C163.731 151.8 163.972 152.215 164.126 152.664C164.279 153.114 164.343 153.59 164.312 154.064C164.282 154.538 164.158 155.001 163.948 155.427C163.738 155.854 163.446 156.234 163.088 156.547L117.879 196.334C117.22 196.912 116.372 197.23 115.496 197.229Z" fill="#E88B3B"/>
<path d="M39.1021 231C34.8759 231 32.3688 230.601 31.979 230.539C31.0335 230.377 30.1908 229.847 29.636 229.065C29.0811 228.282 28.8594 227.312 29.0196 226.366C29.3561 224.4 31.2168 223.07 33.1834 223.407C33.5466 223.468 69.9055 228.908 113.104 190.893C114.601 189.573 116.887 189.724 118.207 191.222C119.527 192.719 119.386 195.005 117.879 196.325C82.9642 227.057 52.4615 231 39.1021 231Z" fill="#E88B3B"/>
<path d="M191.899 231C178.548 231 148.036 227.058 113.113 196.325C111.615 195.004 111.465 192.719 112.785 191.221C114.104 189.724 116.39 189.574 117.888 190.893C161.299 229.094 197.436 223.469 197.799 223.406C198.267 223.327 198.747 223.34 199.21 223.445C199.673 223.551 200.111 223.746 200.499 224.021C200.886 224.296 201.216 224.645 201.469 225.047C201.722 225.449 201.893 225.897 201.972 226.366C202.132 227.312 201.911 228.282 201.356 229.065C200.801 229.847 199.958 230.377 199.013 230.539C198.632 230.61 196.124 231 191.899 231Z" fill="#E88B3B"/>
</g>
<defs>
<clipPath id="clip0_1144_1339">
<rect width="231" height="231" fill="white"/>
</clipPath>
</defs>
</svg>
