<svg width="231" height="231" viewBox="0 0 231 231" fill="none" xmlns="http://www.w3.org/2000/svg">
<g clip-path="url(#clip0_1144_1335)">
<path d="M227.506 188.631C226.61 188.631 225.75 188.987 225.116 189.621C224.482 190.255 224.126 191.115 224.126 192.012V227.394C224.126 231.754 230.887 231.754 230.887 227.394V192.012C230.887 191.115 230.531 190.255 229.897 189.621C229.263 188.987 228.403 188.631 227.506 188.631ZM227.506 112.392H200.961V100.203H209.079C214.021 100.203 218.041 96.183 218.041 91.2412V8.96235C218.041 4.02053 214.021 0 209.079 0H82.9609C78.019 0 73.999 4.02053 73.999 8.96235V21.1001C73.999 25.46 80.7599 25.46 80.7599 21.1001V8.96235C80.7605 8.37877 80.9926 7.81926 81.4052 7.40656C81.8178 6.99387 82.3773 6.76169 82.9609 6.76098H209.08C209.663 6.76181 210.223 6.99402 210.635 7.40669C211.048 7.81936 211.28 8.37881 211.281 8.96235V74.5118H200.962V38.4952C200.962 37.9457 200.828 37.4045 200.572 36.9184C200.315 36.4323 199.945 36.0159 199.491 35.7055C199.038 35.395 198.516 35.1998 197.97 35.1366C197.424 35.0735 196.871 35.1444 196.359 35.3432C195.474 35.6862 176.824 43.3027 172.855 74.5114H80.7599V38.6782C80.7599 34.3183 73.999 34.3183 73.999 38.6782V91.2412C73.999 96.183 78.019 100.203 82.9609 100.203H128.37V112.392H51.6156C59.1032 104.913 59.8343 93.0689 59.8343 83.1176C59.8343 82.2211 59.4781 81.3612 58.8441 80.7273C58.2102 80.0933 57.3503 79.7371 56.4538 79.7371H38.1991V73.3552C49.0437 75.6603 60.8655 66.7673 60.7208 55.486C60.7015 53.9751 60.514 52.4399 59.118 51.5182C52.6969 47.28 43.8536 49.0459 38.1991 53.674V47.5761C47.8597 40.9084 48.5772 25.2067 39.294 17.8778C38.3587 17.1395 37.3238 16.4368 36.2137 15.9843C31.449 14.0389 26.2115 22.5258 25.0761 25.8017C22.3938 33.5425 24.8201 42.4454 31.4377 47.3575V53.6366C27.0985 50.106 21.4315 48.3649 15.8951 49.4737C13.6072 49.9321 9.59795 50.9674 9.09899 53.7407C6.95441 65.6743 20.4732 75.6657 31.4382 73.3651V79.7371H11.8313C10.9348 79.7371 10.0749 80.0933 9.44096 80.7273C8.807 81.3612 8.45084 82.2211 8.45084 83.1176C8.45084 93.0549 8.98992 104.914 16.4766 112.392H3.49279C2.59623 112.392 1.73639 112.748 1.10243 113.382C0.468462 114.016 0.112305 114.876 0.112305 115.773V227.394C0.112305 231.754 6.87328 231.754 6.87328 227.394V211.619H67.9474V227.394C67.9474 231.754 74.7084 231.754 74.7084 227.394V141.304H194.249C194.267 142.482 194.379 148.826 194.393 150.727H137.183C123.818 150.727 113.916 154.206 107.751 161.067C100.349 169.303 101.323 179.288 101.369 179.709C101.458 180.538 101.85 181.305 102.47 181.863C103.091 182.42 103.896 182.729 104.73 182.729H148.403V188.814H135.106C130.747 188.814 130.747 195.575 135.106 195.575H148.403V224.014H105.133C100.773 224.014 100.773 230.775 105.133 230.775H150.578C150.953 230.918 151.358 231 151.784 231C152.209 231 152.614 230.918 152.989 230.775H198.434C202.794 230.775 202.794 224.014 198.434 224.014H155.164V182.729H177.748C185.509 182.729 191.119 180.858 194.9 177.01C201.525 170.264 201.323 158.97 201.067 144.671C201.048 143.565 201.028 142.44 201.011 141.304H224.126V173.081C224.126 177.441 230.887 177.441 230.887 173.081V115.773C230.887 114.876 230.531 114.016 229.897 113.382C229.263 112.748 228.403 112.392 227.506 112.392ZM43.845 57.9172C48.1955 55.1569 51.9803 55.8073 53.9509 56.5033C53.3559 63.5108 44.8366 68.6099 38.3249 66.4027C38.598 64.2342 39.6987 60.5477 43.845 57.9172ZM21.3751 64.9491C18.5031 63.1268 16.0601 59.9888 15.7441 56.5015C22.5141 54.1216 30.4754 59.3943 31.3575 66.4027C28.0739 67.516 24.2535 66.775 21.3751 64.9491ZM34.9931 23.0635C40.6543 27.3698 40.4005 37.198 34.9733 41.5678C33.2988 40.1908 30.7729 37.2944 30.7729 32.3544C30.7724 27.2026 33.3497 24.3553 34.9931 23.0635ZM15.2596 86.4981H53.0224C52.4499 104.76 46.9997 111.964 34.1421 111.964C21.1083 111.965 15.8077 104.992 15.2596 86.4981ZM190.076 172.272C187.633 174.759 183.601 175.968 177.748 175.968H108.181C108.494 173.269 109.536 169.196 112.78 165.586C117.608 160.213 125.818 157.488 137.183 157.488H194.307C194.027 164.114 193.026 169.269 190.076 172.272ZM211.28 81.2728V91.2416C211.28 91.8251 211.047 92.3846 210.635 92.7972C210.222 93.2099 209.663 93.4419 209.079 93.4425H200.961V81.2728H211.28ZM188.913 50.1926C190.754 47.7609 192.604 45.9512 194.2 44.6387V129.314C192.61 127.952 190.773 126.094 188.945 123.625C182.358 114.728 178.875 101.968 178.875 86.723C178.875 71.5005 182.347 58.8683 188.913 50.1926ZM173.023 100.204C173.669 104.754 174.625 108.802 175.79 112.393H163.67V100.204H173.023ZM80.7599 91.2412V81.2723H172.255C172.043 85.3269 172.069 89.3905 172.331 93.4421H82.9609C82.3773 93.4416 81.8177 93.2096 81.4051 92.7969C80.9924 92.3843 80.7604 91.8247 80.7599 91.2412ZM135.131 100.204H156.909V112.393H135.131V100.204ZM178.445 119.153C181.967 126.68 186.34 131.543 189.878 134.543H6.87328V119.153H178.445ZM6.87328 204.858V176.461H67.9474V204.858H6.87328ZM67.9474 169.7H6.87328V141.304H67.9474V169.7ZM200.961 134.543V119.153H224.126V134.543H200.961Z" fill="#E88B3B"/>
<path d="M24.6772 158.883H50.3689C54.7288 158.883 54.7288 152.122 50.3689 152.122H24.6772C20.3172 152.122 20.3172 158.883 24.6772 158.883ZM50.3689 187.279H24.6772C20.3172 187.279 20.3172 194.04 24.6772 194.04H50.3689C54.7288 194.04 54.7288 187.279 50.3689 187.279Z" fill="#E88B3B"/>
</g>
<defs>
<clipPath id="clip0_1144_1335">
<rect width="231" height="231" fill="white"/>
</clipPath>
</defs>
</svg>
