<svg width="231" height="231" viewBox="0 0 231 231" fill="none" xmlns="http://www.w3.org/2000/svg">
<g clip-path="url(#clip0_1144_1259)">
<path d="M42.35 192.5H227.15C229.46 192.5 231 190.96 231 188.65V3.84985C231 1.53985 229.46 0 227.15 0H42.3496C40.0396 0 38.4997 1.53985 38.4997 3.84985V188.65C38.4997 190.96 40.04 192.5 42.35 192.5ZM46.1999 130.9H84.6997C82.7746 151.305 66.6046 167.475 46.1999 169.4V130.9ZM46.1999 7.70015H107.8V30.8001H103.95C101.64 30.8001 100.1 32.34 100.1 34.65C100.1 36.96 101.64 38.4999 103.95 38.4999H119.35C121.66 38.4999 123.2 36.96 123.2 34.65C123.2 32.34 121.66 30.8001 119.35 30.8001H115.5V7.70015H150.15V50.0503C150.15 52.3603 151.69 53.9002 154 53.9002H169.4V57.75C169.4 60.06 170.939 61.5999 173.249 61.5999C175.559 61.5999 177.099 60.06 177.099 57.75V42.3501C177.099 40.0401 175.559 38.5003 173.249 38.5003C170.939 38.5003 169.4 40.0401 169.4 42.3501V46.2H157.85V7.70015H223.3V46.2H207.9V42.3501C207.9 40.0401 206.36 38.5003 204.05 38.5003C201.74 38.5003 200.2 40.0401 200.2 42.3501V57.75C200.2 60.06 201.74 61.5999 204.05 61.5999C206.36 61.5999 207.9 60.06 207.9 57.75V53.9002H223.3V115.5H200.2V111.65C200.2 109.34 198.66 107.8 196.35 107.8C194.04 107.8 192.5 109.34 192.5 111.65V127.05C192.5 129.36 194.04 130.9 196.35 130.9C198.66 130.9 200.2 129.36 200.2 127.05V123.2H223.3V184.8H138.6V123.2H161.7V127.05C161.7 129.36 163.24 130.9 165.55 130.9C167.86 130.9 169.4 129.36 169.4 127.05V111.65C169.4 109.34 167.86 107.8 165.55 107.8C163.24 107.8 161.7 109.34 161.7 111.65V115.5H134.75C132.44 115.5 130.9 117.04 130.9 119.35V184.8H46.1999V176.955C72.1084 175.001 92.3999 153.474 92.3999 127.05C92.3999 124.74 90.86 123.2 88.55 123.2H46.1999V100.1H111.65C113.96 100.1 115.5 98.5603 115.5 96.2503V69.3H119.35C121.66 69.3 123.2 67.7602 123.2 65.4501C123.2 63.1402 121.66 61.6003 119.35 61.6003H103.95C101.64 61.6003 100.1 63.1402 100.1 65.4501C100.1 67.7602 101.64 69.3 103.95 69.3H107.8V92.4H46.1999V7.70015ZM29.645 191.345C31.1849 189.805 31.1849 187.495 29.645 185.955C28.1052 184.415 25.7952 184.415 24.2549 185.955L19.25 190.96V13.0898L24.2549 18.0951C25.025 18.8653 25.7947 19.2502 26.9497 19.2502C28.1047 19.2502 28.8749 18.8653 29.6446 18.0951C31.1844 16.5553 31.1844 14.2453 29.6446 12.705L18.7537 1.81371C18.1244 0.681721 16.9333 0 15.3997 0C13.8662 0 12.6756 0.681721 12.0457 1.81371L1.15489 12.705C-0.384962 14.2448 -0.384962 16.5548 1.15489 18.0951C2.69474 19.6355 5.00474 19.635 6.54504 18.0951L11.5499 13.0898V190.96L6.54504 185.955C5.00519 184.415 2.69519 184.415 1.15489 185.955C-0.384962 187.495 -0.384962 189.805 1.15489 191.345L12.0462 202.236C12.6756 203.368 13.8662 204.05 15.4002 204.05C16.9337 204.05 18.1244 203.368 18.7537 202.236L29.645 191.345ZM231 215.603V215.596C230.999 214.064 230.318 212.875 229.186 212.246L218.295 201.354C216.755 199.815 214.445 199.815 212.905 201.354C211.365 202.894 211.365 205.204 212.905 206.745L217.91 211.749H40.04L45.0449 206.745C46.5847 205.205 46.5847 202.895 45.0449 201.355C43.505 199.815 41.195 199.815 39.6547 201.355L28.7634 212.246C27.6315 212.876 26.9497 214.066 26.9497 215.6C26.9497 217.134 27.6315 218.324 28.7634 218.954L39.6547 229.845C40.4249 230.616 41.1946 231 42.3496 231C43.5046 231 44.2747 230.616 45.0444 229.845C46.5843 228.306 46.5843 225.996 45.0444 224.455L40.04 219.45H217.91L212.905 224.455C211.365 225.995 211.365 228.305 212.905 229.845C213.675 230.615 214.445 231 215.6 231C216.755 231 217.525 230.615 218.295 229.845L229.186 218.954C230.317 218.325 230.999 217.135 231 215.603Z" fill="#E88B3B"/>
</g>
<defs>
<clipPath id="clip0_1144_1259">
<rect width="231" height="231" fill="white"/>
</clipPath>
</defs>
</svg>
