<svg width="24" height="25" viewBox="0 0 24 25" fill="none" xmlns="http://www.w3.org/2000/svg">
<path d="M14 12.1748L10.5 14.1748V10.1748L14 12.1748Z" fill="white" stroke="white" stroke-width="1.5" stroke-linecap="round" stroke-linejoin="round"/>
<path d="M2 12.8828V11.4677C2 8.57235 2 7.12468 2.90549 6.19321C3.81099 5.26175 5.23656 5.22143 8.08769 5.14078C9.43873 5.10257 10.8188 5.0752 12 5.0752C13.1812 5.0752 14.5613 5.10257 15.9123 5.14078C18.7634 5.22142 20.189 5.26175 21.0945 6.19321C22 7.12468 22 8.57235 22 11.4677V12.8828C22 15.7781 22 17.2257 21.0945 18.1572C20.189 19.0887 18.7635 19.129 15.9124 19.2097C14.5613 19.2479 13.1812 19.2753 12 19.2753C10.8188 19.2753 9.43867 19.2479 8.0876 19.2097C5.23651 19.129 3.81097 19.0887 2.90548 18.1572C2 17.2257 2 15.7781 2 12.8828Z" stroke="white" stroke-width="1.5"/>
</svg>
